<svg xmlns="http://www.w3.org/2000/svg" xmlns:xlink="http://www.w3.org/1999/xlink" viewBox="0 0 431.34 251.36"><defs><style>.cls-1{fill:#ffef69;}.cls-2{fill:#fff;}.cls-3{fill:#d2ecfc;}.cls-4{fill:url(#linear-gradient);}.cls-5{fill:url(#linear-gradient-2);}.cls-6{fill:url(#linear-gradient-3);}.cls-7{fill:url(#linear-gradient-4);}.cls-8{fill:url(#linear-gradient-5);}.cls-9{fill:url(#linear-gradient-6);}.cls-10{fill:url(#linear-gradient-7);}.cls-11{fill:url(#linear-gradient-8);}.cls-12{fill:url(#linear-gradient-9);}.cls-13{fill:url(#linear-gradient-10);}.cls-14{fill:url(#linear-gradient-11);}.cls-15{fill:url(#linear-gradient-12);}.cls-16{fill:url(#linear-gradient-13);}.cls-17{fill:url(#linear-gradient-14);}.cls-18{fill:url(#linear-gradient-15);}.cls-19{fill:url(#linear-gradient-16);}.cls-20{fill:url(#linear-gradient-17);}.cls-21{fill:#c5e6ee;}.cls-22{fill:#1a80af;}.cls-23{fill:#d6d6d6;}.cls-24{fill:#009fe3;}.cls-25{fill:#00b7ed;}.cls-26{fill:url(#linear-gradient-18);}.cls-27{fill:#db8b68;}.cls-28{fill:#5b3227;}.cls-29{fill:#c7675b;}.cls-30{fill:url(#linear-gradient-19);}.cls-31{fill:url(#linear-gradient-20);}.cls-32{fill:url(#linear-gradient-21);}.cls-33{fill:url(#linear-gradient-22);}.cls-34{fill:url(#linear-gradient-23);}.cls-35{fill:url(#linear-gradient-24);}.cls-36{fill:#51a631;}.cls-36,.cls-70{opacity:0.6;}.cls-37{fill:#a35e1a;}.cls-38{fill:url(#linear-gradient-25);}.cls-39{fill:#f0b605;}.cls-40{fill:url(#linear-gradient-26);}.cls-41{fill:url(#linear-gradient-27);}.cls-42{fill:url(#linear-gradient-28);}.cls-43{fill:url(#linear-gradient-29);}.cls-44{fill:#c66e00;}.cls-45{fill:url(#linear-gradient-30);}.cls-46{fill:url(#linear-gradient-31);}.cls-47{fill:url(#linear-gradient-32);}.cls-48{fill:url(#linear-gradient-33);}.cls-49{fill:url(#linear-gradient-34);}.cls-50{fill:url(#linear-gradient-35);}.cls-51{fill:url(#linear-gradient-36);}.cls-52{fill:url(#linear-gradient-37);}.cls-53{fill:url(#linear-gradient-38);}.cls-54{fill:url(#linear-gradient-39);}.cls-55{fill:url(#linear-gradient-40);}.cls-56{fill:url(#linear-gradient-41);}.cls-57{fill:url(#linear-gradient-42);}.cls-58{fill:url(#linear-gradient-43);}.cls-59{fill:url(#linear-gradient-44);}.cls-60{fill:url(#linear-gradient-45);}.cls-61{fill:#528620;}.cls-62{fill:url(#linear-gradient-46);}.cls-63{fill:url(#linear-gradient-47);}.cls-64{fill:url(#linear-gradient-48);}.cls-65{fill:url(#linear-gradient-49);}.cls-66{fill:url(#linear-gradient-50);}.cls-67{fill:url(#linear-gradient-51);}.cls-68{fill:url(#linear-gradient-52);}.cls-69{fill:url(#linear-gradient-53);}.cls-70{fill:#81b424;}.cls-71{fill:url(#linear-gradient-54);}.cls-72{fill:url(#linear-gradient-55);}</style><linearGradient id="linear-gradient" x1="83.93" y1="192.76" x2="113.96" y2="192.76" gradientUnits="userSpaceOnUse"><stop offset="0" stop-color="#a3cce3"/><stop offset="1" stop-color="#a3cce3"/></linearGradient><linearGradient id="linear-gradient-2" x1="107.96" y1="223.87" x2="137.56" y2="223.87" gradientTransform="translate(245.52 447.74) rotate(-180)" xlink:href="#linear-gradient"/><linearGradient id="linear-gradient-3" x1="137.56" y1="204.78" x2="165.45" y2="204.78" gradientTransform="translate(303.01 409.55) rotate(-180)" xlink:href="#linear-gradient"/><linearGradient id="linear-gradient-4" x1="145.76" y1="178.39" x2="157.25" y2="178.39" gradientTransform="translate(303.01 356.77) rotate(-180)" xlink:href="#linear-gradient"/><linearGradient id="linear-gradient-5" x1="150.4" y1="151.15" x2="152.61" y2="151.15" gradientTransform="translate(303.01 302.29) rotate(-180)" xlink:href="#linear-gradient"/><linearGradient id="linear-gradient-6" x1="162.44" y1="220.44" x2="177.03" y2="220.44" gradientTransform="translate(339.48 440.87) rotate(-180)" xlink:href="#linear-gradient"/><linearGradient id="linear-gradient-7" x1="173.6" y1="214" x2="189.9" y2="214" gradientTransform="translate(363.5 428) rotate(-180)" xlink:href="#linear-gradient"/><linearGradient id="linear-gradient-8" x1="187.33" y1="180.19" x2="220.79" y2="180.19" xlink:href="#linear-gradient"/><linearGradient id="linear-gradient-9" x1="217.79" y1="206.28" x2="253.4" y2="206.28" gradientTransform="translate(471.19 412.56) rotate(-180)" xlink:href="#linear-gradient"/><linearGradient id="linear-gradient-10" x1="249.97" y1="230.73" x2="266.27" y2="230.73" gradientTransform="translate(516.24 461.47) rotate(-180)" xlink:href="#linear-gradient"/><linearGradient id="linear-gradient-11" x1="263.7" y1="214.64" x2="284.29" y2="214.64" gradientTransform="translate(547.99 429.29) rotate(-180)" xlink:href="#linear-gradient"/><linearGradient id="linear-gradient-12" x1="283.86" y1="199.71" x2="327.62" y2="199.71" xlink:href="#linear-gradient"/><linearGradient id="linear-gradient-13" x1="323.33" y1="223.23" x2="368.81" y2="223.23" gradientTransform="translate(692.14 446.45) rotate(-180)" xlink:href="#linear-gradient"/><linearGradient id="linear-gradient-14" x1="364.52" y1="197.48" x2="393.69" y2="197.48" gradientTransform="translate(758.21 394.97) rotate(-180)" xlink:href="#linear-gradient"/><linearGradient id="linear-gradient-15" x1="390.69" y1="217.43" x2="415.15" y2="217.43" gradientTransform="translate(805.84 434.87) rotate(-180)" xlink:href="#linear-gradient"/><linearGradient id="linear-gradient-16" x1="49.98" y1="218.23" x2="88.84" y2="218.23" gradientTransform="translate(138.81 436.46) rotate(-180)" xlink:href="#linear-gradient"/><linearGradient id="linear-gradient-17" x1="24.39" y1="224.38" x2="52.93" y2="224.38" gradientTransform="translate(77.32 448.76) rotate(-180)" xlink:href="#linear-gradient"/><linearGradient id="linear-gradient-18" x1="248.52" y1="223.34" x2="278.19" y2="203.56" gradientUnits="userSpaceOnUse"><stop offset="0" stop-color="#f49d79"/><stop offset="1" stop-color="#f8b883"/></linearGradient><linearGradient id="linear-gradient-19" x1="253.77" y1="205.89" x2="253.77" y2="201.34" gradientUnits="userSpaceOnUse"><stop offset="0" stop-color="#3aa7cf"/><stop offset="1" stop-color="#93d5f6"/></linearGradient><linearGradient id="linear-gradient-20" x1="262.59" y1="205.89" x2="262.59" y2="201.34" xlink:href="#linear-gradient-19"/><linearGradient id="linear-gradient-21" x1="271.4" y1="205.89" x2="271.4" y2="201.34" xlink:href="#linear-gradient-19"/><linearGradient id="linear-gradient-22" x1="253.77" y1="222.3" x2="253.77" y2="217.75" xlink:href="#linear-gradient-19"/><linearGradient id="linear-gradient-23" x1="262.59" y1="222.3" x2="262.59" y2="217.75" xlink:href="#linear-gradient-19"/><linearGradient id="linear-gradient-24" x1="241.24" y1="218.44" x2="253.32" y2="206.84" gradientUnits="userSpaceOnUse"><stop offset="0" stop-color="#70b62c"/><stop offset="1" stop-color="#b4cc0e"/></linearGradient><linearGradient id="linear-gradient-25" x1="191" y1="231.82" x2="203.48" y2="214.29" gradientUnits="userSpaceOnUse"><stop offset="0" stop-color="#fcbe00"/><stop offset="1" stop-color="#ffdd5a"/></linearGradient><linearGradient id="linear-gradient-26" x1="194.75" y1="216.3" x2="194.75" y2="212.2" xlink:href="#linear-gradient-19"/><linearGradient id="linear-gradient-27" x1="204.15" y1="216.3" x2="204.15" y2="212.2" xlink:href="#linear-gradient-19"/><linearGradient id="linear-gradient-28" x1="194.75" y1="230.2" x2="194.75" y2="225.6" xlink:href="#linear-gradient-19"/><linearGradient id="linear-gradient-29" x1="204.15" y1="230.2" x2="204.15" y2="225.6" xlink:href="#linear-gradient-19"/><linearGradient id="linear-gradient-30" x1="212.39" y1="227.78" x2="229.94" y2="203.13" xlink:href="#linear-gradient-25"/><linearGradient id="linear-gradient-31" x1="217.67" y1="205.96" x2="217.67" y2="200.19" xlink:href="#linear-gradient-19"/><linearGradient id="linear-gradient-32" x1="230.88" y1="205.96" x2="230.88" y2="200.19" xlink:href="#linear-gradient-19"/><linearGradient id="linear-gradient-33" x1="217.67" y1="225.5" x2="217.67" y2="219.03" xlink:href="#linear-gradient-19"/><linearGradient id="linear-gradient-34" x1="230.88" y1="225.5" x2="230.88" y2="219.03" xlink:href="#linear-gradient-19"/><linearGradient id="linear-gradient-35" x1="368.62" y1="225.61" x2="386.17" y2="200.96" xlink:href="#linear-gradient-25"/><linearGradient id="linear-gradient-36" x1="373.9" y1="203.79" x2="373.9" y2="198.02" xlink:href="#linear-gradient-19"/><linearGradient id="linear-gradient-37" x1="387.11" y1="203.79" x2="387.11" y2="198.02" xlink:href="#linear-gradient-19"/><linearGradient id="linear-gradient-38" x1="373.9" y1="223.33" x2="373.9" y2="216.86" xlink:href="#linear-gradient-19"/><linearGradient id="linear-gradient-39" x1="387.11" y1="223.33" x2="387.11" y2="216.86" xlink:href="#linear-gradient-19"/><linearGradient id="linear-gradient-40" x1="59.3" y1="223.25" x2="76.85" y2="198.6" xlink:href="#linear-gradient-25"/><linearGradient id="linear-gradient-41" x1="64.58" y1="201.43" x2="64.58" y2="195.66" xlink:href="#linear-gradient-19"/><linearGradient id="linear-gradient-42" x1="77.79" y1="201.43" x2="77.79" y2="195.66" xlink:href="#linear-gradient-19"/><linearGradient id="linear-gradient-43" x1="64.58" y1="220.97" x2="64.58" y2="214.5" xlink:href="#linear-gradient-19"/><linearGradient id="linear-gradient-44" x1="77.79" y1="220.97" x2="77.79" y2="214.5" xlink:href="#linear-gradient-19"/><linearGradient id="linear-gradient-45" x1="0.5" y1="248.1" x2="431.34" y2="248.1" xlink:href="#linear-gradient-24"/><linearGradient id="linear-gradient-46" x1="170.7" y1="238.63" x2="304.57" y2="238.63" xlink:href="#linear-gradient-24"/><linearGradient id="linear-gradient-47" x1="49.7" y1="186.73" x2="89.92" y2="148.13" xlink:href="#linear-gradient-24"/><linearGradient id="linear-gradient-48" x1="386.51" y1="186.73" x2="426.73" y2="148.13" xlink:href="#linear-gradient-24"/><linearGradient id="linear-gradient-49" x1="152.87" y1="217.07" x2="170.49" y2="200.16" xlink:href="#linear-gradient-24"/><linearGradient id="linear-gradient-50" x1="136.26" y1="198.92" x2="163.87" y2="172.41" xlink:href="#linear-gradient-24"/><linearGradient id="linear-gradient-51" x1="17.84" y1="203.3" x2="50.81" y2="171.66" xlink:href="#linear-gradient-24"/><linearGradient id="linear-gradient-52" x1="297.96" y1="203.3" x2="330.93" y2="171.66" xlink:href="#linear-gradient-24"/><linearGradient id="linear-gradient-53" x1="37.59" y1="227.12" x2="57.83" y2="207.69" gradientUnits="userSpaceOnUse"><stop offset="0" stop-color="#b4cc0e"/><stop offset="1" stop-color="#e2de00"/></linearGradient><linearGradient id="linear-gradient-54" x1="323.56" y1="227.12" x2="343.81" y2="207.69" xlink:href="#linear-gradient-53"/><linearGradient id="linear-gradient-55" x1="144.81" y1="233.94" x2="157.28" y2="221.98" xlink:href="#linear-gradient-53"/></defs><title>Asset 1</title><g id="Layer_2" data-name="Layer 2"><g id="OBJECTS"><path class="cls-1" d="M186.18,36.72A10.52,10.52,0,1,1,175.66,26.2,10.52,10.52,0,0,1,186.18,36.72Z"/><circle class="cls-2" cx="226.78" cy="36.4" r="5.52"/><path class="cls-2" d="M248.43,30a10.62,10.62,0,1,1-10.61-10.61A10.62,10.62,0,0,1,248.43,30Z"/><path class="cls-2" d="M237,40.22a5.1,5.1,0,1,1-5.1-5.09A5.1,5.1,0,0,1,237,40.22Z"/><circle class="cls-2" cx="248.86" cy="36.83" r="10.61"/><circle class="cls-2" cx="259.05" cy="37.68" r="5.94"/><path class="cls-2" d="M245.89,39.37a8.07,8.07,0,1,1-8.07-8.06A8.07,8.07,0,0,1,245.89,39.37Z"/><path class="cls-2" d="M148,69.43a2.2,2.2,0,1,1-2.19-2.2A2.2,2.2,0,0,1,148,69.43Z"/><path class="cls-2" d="M154.38,66.89a4.23,4.23,0,1,1-4.23-4.22A4.23,4.23,0,0,1,154.38,66.89Z"/><path class="cls-2" d="M149.81,71a2,2,0,1,1-2-2A2,2,0,0,1,149.81,71Z"/><path class="cls-2" d="M158.77,69.6a4.23,4.23,0,1,1-4.23-4.23A4.22,4.22,0,0,1,158.77,69.6Z"/><path class="cls-2" d="M161,69.94a2.37,2.37,0,1,1-2.37-2.37A2.37,2.37,0,0,1,161,69.94Z"/><path class="cls-2" d="M153.36,70.61a3.21,3.21,0,1,1-3.21-3.21A3.21,3.21,0,0,1,153.36,70.61Z"/><path class="cls-2" d="M324.3,59a4.45,4.45,0,1,0,4.44-4.45A4.45,4.45,0,0,0,324.3,59Z"/><path class="cls-2" d="M311.29,53.85a8.56,8.56,0,1,0,8.56-8.55A8.56,8.56,0,0,0,311.29,53.85Z"/><path class="cls-2" d="M320.53,62.07A4.11,4.11,0,1,0,324.64,58,4.11,4.11,0,0,0,320.53,62.07Z"/><path class="cls-2" d="M302.4,59.33A8.55,8.55,0,1,0,311,50.78,8.55,8.55,0,0,0,302.4,59.33Z"/><path class="cls-2" d="M298,60a4.79,4.79,0,1,0,4.79-4.79A4.78,4.78,0,0,0,298,60Z"/><path class="cls-2" d="M313.35,61.38a6.5,6.5,0,1,0,6.5-6.5A6.5,6.5,0,0,0,313.35,61.38Z"/><polygon class="cls-3" points="325.58 239.48 355.61 239.48 355.61 113.53 325.58 100.05 325.58 239.48"/><rect class="cls-3" x="301.98" y="162.26" width="29.6" height="77.23"/><rect class="cls-3" x="274.09" y="124.07" width="27.89" height="115.41"/><rect class="cls-3" x="282.29" y="93.07" width="11.49" height="115.41"/><rect class="cls-3" x="286.93" y="53.33" width="2.21" height="115.41"/><rect class="cls-3" x="262.51" y="155.39" width="14.59" height="84.09"/><rect class="cls-3" x="249.64" y="142.52" width="16.3" height="96.96"/><polygon class="cls-3" points="218.75 239.48 252.21 239.48 252.21 74.89 218.75 92.75 218.75 239.48"/><rect class="cls-3" x="186.14" y="127.07" width="35.61" height="112.41"/><rect class="cls-3" x="173.27" y="175.98" width="16.3" height="63.5"/><rect class="cls-3" x="155.25" y="143.81" width="20.59" height="95.67"/><polygon class="cls-3" points="111.92 239.48 155.68 239.48 155.68 127.93 133.84 113.93 111.92 127.93 111.92 239.48"/><rect class="cls-3" x="70.73" y="160.97" width="45.48" height="78.51"/><rect class="cls-3" x="45.85" y="109.48" width="29.17" height="130"/><rect class="cls-3" x="24.39" y="149.38" width="24.45" height="90.1"/><rect class="cls-3" x="350.7" y="150.98" width="38.86" height="88.5"/><rect class="cls-3" x="386.61" y="163.28" width="28.53" height="76.2"/><polygon class="cls-4" points="113.96 245.37 83.93 245.37 83.93 153.64 113.96 140.16 113.96 245.37"/><rect class="cls-5" x="107.96" y="202.37" width="29.6" height="43" transform="translate(245.52 447.74) rotate(180)"/><rect class="cls-6" x="137.56" y="164.18" width="27.89" height="81.18" transform="translate(303.01 409.55) rotate(180)"/><rect class="cls-7" x="145.76" y="133.18" width="11.49" height="90.41" transform="translate(303.01 356.77) rotate(180)"/><rect class="cls-8" x="150.4" y="93.44" width="2.21" height="115.41" transform="translate(303.01 302.29) rotate(180)"/><rect class="cls-9" x="162.44" y="195.5" width="14.59" height="49.87" transform="translate(339.48 440.87) rotate(180)"/><rect class="cls-10" x="173.6" y="182.63" width="16.3" height="62.74" transform="translate(363.5 428) rotate(180)"/><polygon class="cls-11" points="220.79 245.37 187.33 245.37 187.33 115 220.79 132.87 220.79 245.37"/><rect class="cls-12" x="217.79" y="167.19" width="35.61" height="78.18" transform="translate(471.19 412.56) rotate(180)"/><rect class="cls-13" x="249.97" y="216.1" width="16.3" height="29.27" transform="translate(516.24 461.47) rotate(180)"/><rect class="cls-14" x="263.7" y="183.92" width="20.59" height="61.45" transform="translate(547.99 429.29) rotate(180)"/><polygon class="cls-15" points="327.62 245.37 283.86 245.37 283.86 168.05 305.7 154.04 327.62 168.05 327.62 245.37"/><rect class="cls-16" x="323.33" y="201.08" width="45.48" height="44.29" transform="translate(692.14 446.45) rotate(180)"/><rect class="cls-17" x="364.52" y="149.6" width="29.17" height="95.77" transform="translate(758.21 394.97) rotate(180)"/><rect class="cls-18" x="390.69" y="189.5" width="24.45" height="55.87" transform="translate(805.84 434.87) rotate(180)"/><rect class="cls-19" x="49.98" y="191.09" width="38.86" height="54.28" transform="translate(138.81 436.46) rotate(180)"/><rect class="cls-20" x="24.39" y="203.39" width="28.53" height="41.98" transform="translate(77.32 448.76) rotate(180)"/><rect class="cls-21" x="194.26" y="136.37" width="4.88" height="13.14"/><rect class="cls-21" x="206.46" y="136.37" width="4.88" height="13.14"/><rect class="cls-21" x="194.26" y="161.33" width="4.88" height="13.14"/><rect class="cls-21" x="206.46" y="161.33" width="4.88" height="13.14"/><rect class="cls-21" x="194.26" y="186.29" width="4.88" height="13.14"/><rect class="cls-21" x="206.46" y="186.29" width="4.88" height="13.14"/><rect class="cls-21" x="194.26" y="211.26" width="4.88" height="13.14"/><rect class="cls-21" x="206.46" y="211.26" width="4.88" height="13.14"/><rect class="cls-21" x="226.91" y="176.72" width="4.88" height="13.14"/><rect class="cls-21" x="239.12" y="176.72" width="4.88" height="13.14"/><rect class="cls-21" x="226.91" y="201.68" width="4.88" height="13.14"/><rect class="cls-21" x="239.12" y="201.68" width="4.88" height="13.14"/><rect class="cls-21" x="268.58" y="189.11" width="4.88" height="13.14"/><rect class="cls-21" x="280.78" y="189.11" width="4.88" height="13.14"/><rect class="cls-21" x="268.58" y="214.07" width="4.88" height="13.14"/><rect class="cls-21" x="280.78" y="214.07" width="4.88" height="13.14"/><rect class="cls-21" x="298.99" y="174.84" width="4.88" height="13.14"/><rect class="cls-21" x="311.19" y="174.84" width="4.88" height="13.14"/><rect class="cls-21" x="298.99" y="199.81" width="4.88" height="13.14"/><rect class="cls-21" x="311.19" y="199.81" width="4.88" height="13.14"/><rect class="cls-21" x="371.82" y="159.08" width="4.88" height="13.14"/><rect class="cls-21" x="384.02" y="159.08" width="4.88" height="13.14"/><rect class="cls-21" x="371.82" y="184.04" width="4.88" height="13.14"/><rect class="cls-21" x="384.02" y="184.04" width="4.88" height="13.14"/><rect class="cls-21" x="143.95" y="169.96" width="4.88" height="13.14"/><rect class="cls-21" x="156.15" y="169.96" width="4.88" height="13.14"/><rect class="cls-21" x="143.95" y="194.93" width="4.88" height="13.14"/><rect class="cls-21" x="156.15" y="194.93" width="4.88" height="13.14"/><rect class="cls-21" x="91.02" y="158.7" width="4.88" height="13.14"/><rect class="cls-21" x="103.22" y="158.7" width="4.88" height="13.14"/><rect class="cls-21" x="91.02" y="183.67" width="4.88" height="13.14"/><rect class="cls-21" x="103.22" y="183.67" width="4.88" height="13.14"/><path class="cls-3" d="M379,31.4H311.59A7.41,7.41,0,0,1,304.18,24h0a7.42,7.42,0,0,1,7.41-7.42H379A7.42,7.42,0,0,1,386.44,24h0A7.42,7.42,0,0,1,379,31.4Z"/><path class="cls-3" d="M332.19,14.83H294.75a7.42,7.42,0,0,1-7.42-7.42h0A7.42,7.42,0,0,1,294.75,0h37.44a7.41,7.41,0,0,1,7.41,7.41h0A7.41,7.41,0,0,1,332.19,14.83Z"/><rect class="cls-22" x="193.74" y="201.31" width="0.47" height="2.11"/><rect class="cls-22" x="200.45" y="201.31" width="0.47" height="2.11"/><rect class="cls-2" x="190.37" y="189.99" width="14.38" height="11.4" rx="0.4"/><rect class="cls-23" x="190.87" y="190.73" width="13.4" height="9.91"/><rect class="cls-24" x="191.09" y="190.96" width="2.15" height="4.7"/><rect class="cls-25" x="193.25" y="190.96" width="2.15" height="4.7"/><rect class="cls-24" x="195.4" y="190.96" width="2.15" height="4.7"/><rect class="cls-25" x="197.56" y="190.96" width="2.15" height="4.7"/><rect class="cls-25" x="191.09" y="195.66" width="2.15" height="4.7"/><rect class="cls-24" x="193.25" y="195.66" width="2.15" height="4.7"/><rect class="cls-25" x="195.4" y="195.66" width="2.15" height="4.7"/><rect class="cls-24" x="197.56" y="195.66" width="2.15" height="4.7"/><rect class="cls-24" x="199.71" y="190.96" width="2.15" height="4.7"/><rect class="cls-25" x="201.86" y="190.96" width="2.15" height="4.7"/><rect class="cls-25" x="199.71" y="195.66" width="2.15" height="4.7"/><rect class="cls-24" x="201.86" y="195.66" width="2.15" height="4.7"/><rect class="cls-22" x="212.81" y="185.63" width="0.39" height="1.74"/><rect class="cls-22" x="218.34" y="185.63" width="0.39" height="1.74"/><rect class="cls-2" x="210.04" y="176.32" width="11.84" height="9.38" rx="0.4"/><rect class="cls-23" x="210.45" y="176.93" width="11.03" height="8.16"/><rect class="cls-24" x="210.63" y="177.12" width="1.77" height="3.87"/><rect class="cls-25" x="212.41" y="177.12" width="1.77" height="3.87"/><rect class="cls-24" x="214.18" y="177.12" width="1.77" height="3.87"/><rect class="cls-25" x="215.95" y="177.12" width="1.77" height="3.87"/><rect class="cls-25" x="210.63" y="180.99" width="1.77" height="3.87"/><rect class="cls-24" x="212.41" y="180.99" width="1.77" height="3.87"/><rect class="cls-25" x="214.18" y="180.99" width="1.77" height="3.87"/><rect class="cls-24" x="215.95" y="180.99" width="1.77" height="3.87"/><rect class="cls-24" x="217.73" y="177.12" width="1.77" height="3.87"/><rect class="cls-25" x="219.5" y="177.12" width="1.77" height="3.87"/><rect class="cls-25" x="217.73" y="180.99" width="1.77" height="3.87"/><rect class="cls-24" x="219.5" y="180.99" width="1.77" height="3.87"/><rect class="cls-22" x="74.16" y="181.56" width="0.39" height="1.74"/><rect class="cls-22" x="79.68" y="181.56" width="0.39" height="1.74"/><rect class="cls-2" x="71.39" y="172.24" width="11.84" height="9.38" rx="0.4"/><rect class="cls-23" x="71.79" y="172.85" width="11.03" height="8.16"/><rect class="cls-24" x="71.98" y="173.04" width="1.77" height="3.87"/><rect class="cls-25" x="73.75" y="173.04" width="1.77" height="3.87"/><rect class="cls-24" x="75.52" y="173.04" width="1.77" height="3.87"/><rect class="cls-25" x="77.3" y="173.04" width="1.77" height="3.87"/><rect class="cls-25" x="71.98" y="176.91" width="1.77" height="3.87"/><rect class="cls-24" x="73.75" y="176.91" width="1.77" height="3.87"/><rect class="cls-25" x="75.52" y="176.91" width="1.77" height="3.87"/><rect class="cls-24" x="77.3" y="176.91" width="1.77" height="3.87"/><rect class="cls-24" x="79.07" y="173.04" width="1.77" height="3.87"/><rect class="cls-25" x="80.84" y="173.04" width="1.77" height="3.87"/><rect class="cls-25" x="79.07" y="176.91" width="1.77" height="3.87"/><rect class="cls-24" x="80.84" y="176.91" width="1.77" height="3.87"/><rect class="cls-22" x="227.59" y="185.63" width="0.39" height="1.74"/><rect class="cls-22" x="233.11" y="185.63" width="0.39" height="1.74"/><rect class="cls-2" x="224.82" y="176.32" width="11.84" height="9.38" rx="0.4"/><rect class="cls-23" x="225.22" y="176.93" width="11.03" height="8.16"/><rect class="cls-24" x="225.41" y="177.12" width="1.77" height="3.87"/><rect class="cls-25" x="227.18" y="177.12" width="1.77" height="3.87"/><rect class="cls-24" x="228.95" y="177.12" width="1.77" height="3.87"/><rect class="cls-25" x="230.73" y="177.12" width="1.77" height="3.87"/><rect class="cls-25" x="225.41" y="180.99" width="1.77" height="3.87"/><rect class="cls-24" x="227.18" y="180.99" width="1.77" height="3.87"/><rect class="cls-25" x="228.95" y="180.99" width="1.77" height="3.87"/><rect class="cls-24" x="230.73" y="180.99" width="1.77" height="3.87"/><rect class="cls-24" x="232.5" y="177.12" width="1.77" height="3.87"/><rect class="cls-25" x="234.27" y="177.12" width="1.77" height="3.87"/><rect class="cls-25" x="232.5" y="180.99" width="1.77" height="3.87"/><rect class="cls-24" x="234.27" y="180.99" width="1.77" height="3.87"/><polygon class="cls-26" points="246.82 197.82 262.88 183.57 278.93 197.82 278.93 233.26 246.82 233.26 246.82 197.82"/><polygon class="cls-27" points="262.88 183.57 246.82 197.82 246.82 200.42 262.88 186.17 278.93 200.42 278.93 197.82 262.88 183.57"/><polygon class="cls-28" points="262.88 183.57 244.64 199.7 244.64 198.03 262.88 181.9 262.88 183.57"/><polygon class="cls-28" points="262.88 183.57 281.11 199.76 281.11 198.09 262.88 181.9 262.88 183.57"/><rect class="cls-29" x="250.47" y="198.57" width="6.61" height="7.63"/><rect class="cls-29" x="259.27" y="198.57" width="6.61" height="7.63"/><rect class="cls-29" x="250.47" y="214.9" width="6.61" height="7.63"/><rect class="cls-29" x="259.27" y="214.9" width="6.61" height="7.63"/><rect class="cls-29" x="269.87" y="217.02" width="6.61" height="16.22"/><rect class="cls-29" x="268.07" y="198.57" width="6.61" height="7.63"/><rect class="cls-30" x="250.9" y="199.08" width="5.75" height="6.82"/><rect class="cls-28" x="250.46" y="205.25" width="6.63" height="1.08"/><rect class="cls-31" x="259.71" y="199.08" width="5.75" height="6.82"/><rect class="cls-32" x="268.53" y="199.08" width="5.75" height="6.82"/><rect class="cls-28" x="270.29" y="217.4" width="5.75" height="15.9"/><rect class="cls-28" x="259.26" y="205.25" width="6.63" height="1.08"/><rect class="cls-33" x="250.9" y="215.49" width="5.75" height="6.82"/><rect class="cls-28" x="250.46" y="221.66" width="6.63" height="1.08"/><rect class="cls-34" x="259.71" y="215.49" width="5.75" height="6.82"/><rect class="cls-28" x="259.26" y="221.66" width="6.63" height="1.08"/><rect class="cls-28" x="268.07" y="205.25" width="6.63" height="1.08"/><path class="cls-35" d="M241.14,204.27c-6.13,6.14-6.91,13-6.24,16.44.72,3.6,4.92,6.12,9.24,5.88,3.84-.22,8.16-2.16,7.8-8.4a23.55,23.55,0,0,0-5.76-13.92C244.13,202.22,243.06,202.35,241.14,204.27Z"/><path class="cls-36" d="M239.52,206.06c-4.65,5.65-5.23,11.58-4.62,14.65.72,3.6,4.92,6.12,9.24,5.88,3.53-.2,7.48-1.87,7.8-7C244,227.66,235.31,218.71,239.52,206.06Z"/><polygon class="cls-37" points="243.46 216.34 242.84 233.67 243.86 233.67 243.46 216.34"/><polygon class="cls-37" points="240.12 221.22 243.29 225.69 243.41 224.67 240.12 221.22"/><polygon class="cls-37" points="243.41 222.31 243.41 223.08 246.63 220.53 243.41 222.31"/><rect class="cls-38" x="188.55" y="202.94" width="21.58" height="34.36"/><rect class="cls-39" x="188.55" y="202.94" width="21.58" height="2.16"/><rect class="cls-39" x="188.55" y="219.24" width="21.58" height="2.16"/><rect class="cls-39" x="192.14" y="207.32" width="5.23" height="9.54"/><rect class="cls-39" x="201.54" y="207.32" width="5.23" height="9.54"/><rect class="cls-39" x="192.14" y="221.96" width="5.23" height="9.54"/><rect class="cls-39" x="201.54" y="221.96" width="5.23" height="9.54"/><rect class="cls-40" x="192.43" y="207.59" width="4.66" height="8.98"/><rect class="cls-41" x="201.82" y="207.59" width="4.66" height="8.98"/><rect class="cls-42" x="192.43" y="222.25" width="4.66" height="8.98"/><rect class="cls-43" x="201.82" y="222.25" width="4.66" height="8.98"/><rect class="cls-44" x="187.93" y="202.94" width="22.82" height="1.12"/><rect class="cls-44" x="187.93" y="218.63" width="22.82" height="1.12"/><rect class="cls-45" x="208.94" y="187.17" width="30.34" height="48.32"/><rect class="cls-39" x="208.94" y="187.17" width="30.34" height="3.04"/><rect class="cls-39" x="208.94" y="210.09" width="30.34" height="3.04"/><rect class="cls-39" x="213.99" y="193.32" width="7.35" height="13.41"/><rect class="cls-39" x="227.21" y="193.32" width="7.35" height="13.41"/><rect class="cls-39" x="213.99" y="213.91" width="7.35" height="13.41"/><rect class="cls-39" x="227.21" y="213.91" width="7.35" height="13.41"/><rect class="cls-46" x="214.39" y="193.71" width="6.55" height="12.63"/><rect class="cls-47" x="227.61" y="193.71" width="6.55" height="12.63"/><rect class="cls-48" x="214.39" y="214.32" width="6.55" height="12.63"/><rect class="cls-49" x="227.61" y="214.32" width="6.55" height="12.63"/><rect class="cls-44" x="208.07" y="187.17" width="32.08" height="1.58"/><rect class="cls-44" x="208.07" y="209.23" width="32.08" height="1.58"/><rect class="cls-50" x="365.17" y="185" width="30.34" height="48.32"/><rect class="cls-39" x="365.17" y="185" width="30.34" height="3.04"/><rect class="cls-39" x="365.17" y="207.92" width="30.34" height="3.04"/><rect class="cls-39" x="370.22" y="191.15" width="7.35" height="13.41"/><rect class="cls-39" x="383.44" y="191.15" width="7.35" height="13.41"/><rect class="cls-39" x="370.22" y="211.74" width="7.35" height="13.41"/><rect class="cls-39" x="383.44" y="211.74" width="7.35" height="13.41"/><rect class="cls-51" x="370.62" y="191.54" width="6.55" height="12.63"/><rect class="cls-52" x="383.84" y="191.54" width="6.55" height="12.63"/><rect class="cls-53" x="370.62" y="212.15" width="6.55" height="12.63"/><rect class="cls-54" x="383.84" y="212.15" width="6.55" height="12.63"/><rect class="cls-44" x="364.3" y="185" width="32.08" height="1.58"/><rect class="cls-44" x="364.3" y="207.06" width="32.08" height="1.58"/><rect class="cls-55" x="55.85" y="182.63" width="30.34" height="48.32"/><rect class="cls-39" x="55.85" y="182.63" width="30.34" height="3.04"/><rect class="cls-39" x="55.85" y="205.56" width="30.34" height="3.04"/><rect class="cls-39" x="60.9" y="188.79" width="7.35" height="13.41"/><rect class="cls-39" x="74.12" y="188.79" width="7.35" height="13.41"/><rect class="cls-39" x="60.9" y="209.38" width="7.35" height="13.41"/><rect class="cls-39" x="74.12" y="209.38" width="7.35" height="13.41"/><rect class="cls-56" x="61.3" y="189.18" width="6.55" height="12.63"/><rect class="cls-57" x="74.52" y="189.18" width="6.55" height="12.63"/><rect class="cls-58" x="61.3" y="209.79" width="6.55" height="12.63"/><rect class="cls-59" x="74.52" y="209.79" width="6.55" height="12.63"/><rect class="cls-44" x="54.98" y="182.63" width="32.08" height="1.58"/><rect class="cls-44" x="54.98" y="204.7" width="32.08" height="1.58"/><path class="cls-60" d="M428.08,251.36H3.76A3.26,3.26,0,0,1,.5,248.1h0a3.26,3.26,0,0,1,3.26-3.25H428.08a3.26,3.26,0,0,1,3.26,3.25h0A3.26,3.26,0,0,1,428.08,251.36Z"/><path class="cls-61" d="M215.39,244.88H4.52c15.78-8.23,51.4-19.71,105.43-19.71S201.58,235.46,215.39,244.88Z"/><path class="cls-61" d="M426,244.88H215.09c15.78-8.23,51.4-19.71,105.43-19.71S412.14,235.46,426,244.88Z"/><path class="cls-62" d="M304.57,244.88H170.7c10-5.22,32.64-12.51,66.94-12.51S295.8,238.9,304.57,244.88Z"/><path class="cls-2" d="M106.65,170.05a3.07,3.07,0,1,1-3.07-3.06A3.06,3.06,0,0,1,106.65,170.05Z"/><path class="cls-2" d="M105.66,157.83a22.16,22.16,0,0,1-2.08,9.09,21,21,0,0,1,0-18.17A22.14,22.14,0,0,1,105.66,157.83Z"/><path class="cls-2" d="M97.18,180.72a22.08,22.08,0,0,1-7.56,5.45,21,21,0,0,1,12-13.64A22.1,22.1,0,0,1,97.18,180.72Z"/><path class="cls-2" d="M114.94,175.16a22.25,22.25,0,0,1-8.15-4.52,20.91,20.91,0,0,1,17.46,5.05A22.28,22.28,0,0,1,114.94,175.16Z"/><path class="cls-2" d="M102.13,226.48s-.14.36,2,.36,2.13-.36,2.13-.36l-2.5-54.71Z"/><path class="cls-2" d="M350.23,155.45a3.85,3.85,0,1,1-3.85-3.85A3.85,3.85,0,0,1,350.23,155.45Z"/><path class="cls-2" d="M349,140.1a27.91,27.91,0,0,1-2.61,11.42,26.2,26.2,0,0,1,0-22.84A27.85,27.85,0,0,1,349,140.1Z"/><path class="cls-2" d="M338.33,168.87a28,28,0,0,1-9.51,6.85,26.3,26.3,0,0,1,15.1-17.15A27.83,27.83,0,0,1,338.33,168.87Z"/><path class="cls-2" d="M360.66,161.87a27.86,27.86,0,0,1-10.25-5.68,26.3,26.3,0,0,1,21.94,6.35A27.93,27.93,0,0,1,360.66,161.87Z"/><path class="cls-2" d="M344.55,226.38s-.18.46,2.55.46,2.67-.46,2.67-.46l-3.13-68.77Z"/><path class="cls-2" d="M119.37,193.81A1.78,1.78,0,1,1,117.6,192,1.78,1.78,0,0,1,119.37,193.81Z"/><path class="cls-2" d="M118.8,186.74a12.82,12.82,0,0,1-1.2,5.26,12.13,12.13,0,0,1,0-10.52A12.88,12.88,0,0,1,118.8,186.74Z"/><path class="cls-2" d="M113.89,200a12.92,12.92,0,0,1-4.38,3.16,12.11,12.11,0,0,1,7-7.9A12.9,12.9,0,0,1,113.89,200Z"/><path class="cls-2" d="M124.18,196.77a12.77,12.77,0,0,1-4.72-2.62,12.78,12.78,0,0,1,5.38.31,12.94,12.94,0,0,1,4.72,2.61A12.68,12.68,0,0,1,124.18,196.77Z"/><path class="cls-2" d="M116.76,226.48s-.08.21,1.17.21,1.23-.21,1.23-.21l-1.44-31.67Z"/><path class="cls-2" d="M361.93,191.66a2.08,2.08,0,1,1-2.08-2.07A2.08,2.08,0,0,1,361.93,191.66Z"/><path class="cls-2" d="M361.26,183.39a15,15,0,0,1-1.41,6.15,14.21,14.21,0,0,1,0-12.3A15,15,0,0,1,361.26,183.39Z"/><path class="cls-2" d="M355.52,198.89a14.87,14.87,0,0,1-5.12,3.68,14.18,14.18,0,0,1,8.13-9.23A14.93,14.93,0,0,1,355.52,198.89Z"/><path class="cls-2" d="M367.54,195.12a14.9,14.9,0,0,1-5.51-3.06,15.05,15.05,0,0,1,6.29.36,14.89,14.89,0,0,1,5.52,3.06A15.1,15.1,0,0,1,367.54,195.12Z"/><path class="cls-2" d="M358.87,229.85s-.1.25,1.37.25,1.44-.25,1.44-.25l-1.69-37Z"/><path class="cls-63" d="M53.62,136.87c-9.14,24.38-10.3,51.8-9.29,65.29,1.07,14.3,7.33,24.31,13.76,23.36,5.71-.85,12.15-8.58,11.62-33.37s-5.36-46.71-8.58-55.28C58.07,128.71,56.48,129.24,53.62,136.87Z"/><path class="cls-36" d="M51.2,144c-6.92,22.43-7.79,46-6.87,58.19,1.07,14.3,7.33,24.31,13.76,23.36,5.26-.78,11.13-7.41,11.61-27.81C57.88,229.8,44.93,194.23,51.2,144Z"/><polygon class="cls-37" points="57.24 197.59 55.54 244.88 58.32 244.88 57.24 197.59"/><polygon class="cls-37" points="52.34 216.24 56.77 223.09 57.08 220.3 52.34 216.24"/><polygon class="cls-37" points="57.08 213.86 57.08 215.98 62.11 209.55 57.08 213.86"/><path class="cls-64" d="M390.43,136.87c-9.14,24.38-10.3,51.8-9.29,65.29,1.07,14.3,7.33,24.31,13.76,23.36,5.71-.85,12.16-8.58,11.62-33.37s-5.36-46.71-8.58-55.28C394.88,128.71,393.29,129.24,390.43,136.87Z"/><path class="cls-36" d="M388,144c-6.92,22.43-7.79,46-6.87,58.19,1.07,14.3,7.33,24.31,13.76,23.36,5.26-.78,11.14-7.41,11.61-27.81C394.69,229.8,381.74,194.23,388,144Z"/><polygon class="cls-37" points="394.05 197.59 392.35 244.88 395.13 244.88 394.05 197.59"/><polygon class="cls-37" points="389.15 216.24 393.58 223.09 393.89 220.3 389.15 216.24"/><polygon class="cls-37" points="393.89 213.86 393.89 215.98 398.92 209.55 393.89 213.86"/><path class="cls-65" d="M154.59,195.23a74,74,0,0,0-4.07,28.6c.47,6.26,3.21,10.65,6,10.23,2.5-.37,5.32-3.76,5.09-14.62s-2.35-20.45-3.76-24.21C156.54,191.65,155.84,191.89,154.59,195.23Z"/><path class="cls-36" d="M153.53,198.34a75.26,75.26,0,0,0-3,25.49c.47,6.26,3.21,10.65,6,10.23,2.3-.34,4.87-3.25,5.08-12.18C156.46,235.93,150.78,220.35,153.53,198.34Z"/><polygon class="cls-37" points="156.17 221.82 155.43 242.54 156.65 242.54 156.17 221.82"/><polygon class="cls-37" points="154.03 229.99 155.97 232.99 156.11 231.77 154.03 229.99"/><polygon class="cls-37" points="156.11 228.95 156.11 229.88 158.31 227.06 156.11 228.95"/><path class="cls-66" d="M139,164.68c-6.28,16.74-7.07,35.57-6.38,44.83.74,9.82,5,16.69,9.45,16,3.92-.58,8.34-5.89,8-22.9s-3.68-32.07-5.89-38C142,159.08,140.91,159.45,139,164.68Z"/><path class="cls-36" d="M137.29,169.56a117.85,117.85,0,0,0-4.72,39.95c.74,9.82,5,16.69,9.45,16,3.61-.53,7.64-5.09,8-19.09C141.88,228.48,133,204.06,137.29,169.56Z"/><polygon class="cls-37" points="141.43 206.37 140.26 238.83 142.17 238.83 141.43 206.37"/><polygon class="cls-37" points="138.07 219.17 141.11 223.87 141.32 221.96 138.07 219.17"/><polygon class="cls-37" points="141.32 217.54 141.32 218.99 144.77 214.58 141.32 217.54"/><path class="cls-67" d="M17.58,164.65C.83,181.39-1.3,200.23.55,209.5c2,9.82,13.42,16.69,25.21,16C36.22,225,48,219.64,47,202.62s-9.82-32.08-15.71-38C25.72,159,22.81,159.41,17.58,164.65Z"/><path class="cls-36" d="M13.14,169.53C.46,184.93-1.12,201.12.55,209.5c2,9.82,13.42,16.69,25.21,16,9.63-.54,20.39-5.09,21.27-19.1C25.38,228.48,1.65,204,13.14,169.53Z"/><polygon class="cls-37" points="23.9 197.59 22.2 244.88 24.98 244.88 23.9 197.59"/><polygon class="cls-37" points="14.78 210.88 23.44 223.09 23.75 220.3 14.78 210.88"/><polygon class="cls-37" points="23.75 213.86 23.75 215.98 32.55 209.02 23.75 213.86"/><path class="cls-68" d="M297.7,164.65c-16.75,16.74-18.88,35.58-17,44.85,2,9.82,13.42,16.69,25.21,16,10.46-.58,22.26-5.9,21.28-22.92s-9.82-32.08-15.71-38C305.84,159,302.93,159.41,297.7,164.65Z"/><path class="cls-36" d="M293.26,169.53c-12.68,15.4-14.26,31.59-12.59,40,2,9.82,13.42,16.69,25.21,16,9.63-.54,20.39-5.09,21.27-19.1C305.5,228.48,281.77,204,293.26,169.53Z"/><polygon class="cls-37" points="304.02 197.59 302.32 244.88 305.1 244.88 304.02 197.59"/><polygon class="cls-37" points="294.9 210.88 303.56 223.09 303.87 220.3 294.9 210.88"/><polygon class="cls-37" points="303.87 213.86 303.87 215.98 312.68 209.02 303.87 213.86"/><path class="cls-69" d="M37.42,203.38C27.14,213.67,25.83,225.24,27,230.93c1.2,6,8.24,10.26,15.48,9.85,6.42-.35,13.67-3.62,13.07-14.07s-6-19.71-9.65-23.33C42.43,199.94,40.64,200.16,37.42,203.38Z"/><path class="cls-70" d="M34.7,206.38c-7.79,9.46-8.76,19.41-7.73,24.55,1.2,6,8.24,10.26,15.48,9.85,5.92-.33,12.53-3.12,13.07-11.73C42.22,242.59,27.64,227.58,34.7,206.38Z"/><polygon class="cls-37" points="41.31 223.62 40.26 244.88 41.97 244.88 41.31 223.62"/><polygon class="cls-37" points="35.71 231.78 41.02 239.28 41.21 237.57 35.71 231.78"/><polygon class="cls-37" points="41.21 233.61 41.21 234.91 46.62 230.64 41.21 233.61"/><path class="cls-71" d="M323.4,203.38c-10.29,10.29-11.6,21.86-10.46,27.55,1.21,6,8.24,10.26,15.48,9.85,6.43-.35,13.68-3.62,13.07-14.07s-6-19.71-9.65-23.33C328.4,199.94,326.61,200.16,323.4,203.38Z"/><path class="cls-70" d="M320.67,206.38c-7.79,9.46-8.76,19.41-7.73,24.55,1.21,6,8.24,10.26,15.48,9.85,5.92-.33,12.53-3.12,13.07-11.73C328.19,242.59,313.61,227.58,320.67,206.38Z"/><polygon class="cls-37" points="327.28 223.62 326.24 244.88 327.94 244.88 327.28 223.62"/><polygon class="cls-37" points="321.68 231.78 327 239.28 327.19 237.57 321.68 231.78"/><polygon class="cls-37" points="327.19 233.61 327.19 234.91 332.6 230.64 327.19 233.61"/><path class="cls-72" d="M144.71,219.32c-6.34,6.34-7.14,13.46-6.44,17,.74,3.71,5.07,6.31,9.53,6.07,4-.22,8.42-2.23,8-8.67a24.31,24.31,0,0,0-5.94-14.37C147.79,217.2,146.69,217.34,144.71,219.32Z"/><path class="cls-70" d="M143,221.17c-4.8,5.83-5.4,12-4.76,15.12.74,3.71,5.07,6.31,9.53,6.07,3.65-.21,7.72-1.93,8-7.23C147.66,243.47,138.68,234.23,143,221.17Z"/><polygon class="cls-37" points="147.1 231.78 146.46 244.88 147.51 244.88 147.1 231.78"/><polygon class="cls-37" points="143.65 236.81 146.92 241.43 147.04 240.38 143.65 236.81"/><polygon class="cls-37" points="147.04 237.94 147.04 238.74 150.37 236.11 147.04 237.94"/></g></g></svg>