<svg xmlns="http://www.w3.org/2000/svg" viewBox="0 0 244.88 165.88"><defs><style>.cls-1{fill:#f0e811;}.cls-2,.cls-6,.cls-7{fill:none;stroke:#000;stroke-linecap:round;stroke-linejoin:round;}.cls-2{stroke-width:2.77px;}.cls-3{fill:#ffa200;}.cls-4{fill:#25cee8;}.cls-5{fill:#3cce52;}.cls-6{stroke-width:2.42px;}.cls-7{stroke-width:2.77px;}</style></defs><title>Asset 1</title><g id="Layer_2" data-name="Layer 2"><g id="Layer_1-2" data-name="Layer 1"><path d="M19.22,157H16.08v5.6H14.19v-7.37H21.1v7.37H19.22Z"/><path d="M22.64,155.23h1.88v.71a3.24,3.24,0,0,1,2.27-.89c2,0,3.35,1.58,3.35,3.75a3.79,3.79,0,0,1-3.9,4,3.56,3.56,0,0,1-1.72-.36v3.46H22.64Zm1.88,2.39v3a2.56,2.56,0,0,0,1.56.43,2,2,0,0,0,2.06-2.18,1.85,1.85,0,0,0-1.93-2A2.3,2.3,0,0,0,24.52,157.62Z"/><path d="M31.21,162.6v-7.37H33.1v4.67l3.43-4.67h1.89v7.37H36.53v-4.66L33.1,162.6Z"/><path d="M47.45,158.75l2.62,3.85H47.78L46.06,160l-1.79,2.65H42.1l2.62-3.75-2.46-3.62h2.31l1.55,2.44,1.61-2.44h2.18Z"/><path d="M54,155.05a3.87,3.87,0,1,1-4,3.87A3.77,3.77,0,0,1,54,155.05Zm0,6a2.11,2.11,0,1,0-2-2.11A2,2,0,0,0,54,161Z"/><path d="M59.05,155.23h1.88v7.37H59.05Zm4.14,3.51,3.18,3.86H63.91L61,158.88l2.65-3.65H66Z"/><path d="M66.92,162.6v-7.37h1.89v4.67l3.44-4.67h1.88v7.37H72.25v-4.66l-3.44,4.66Z"/><path d="M75.66,155.23h1.71l2.5,3.08,2.38-3.08H83.9v7.37H82v-4.5l-2.18,2.75h0l-2.24-2.75v4.5H75.66Z"/><path d="M85.43,162.6v-7.37h1.89v4.67l3.43-4.67h1.89v7.37H90.75v-4.66l-3.43,4.66Z"/><path d="M100.18,155.23v7.37H98.3v-2.21h-1l-1.52,2.21H93.57l2-2.62a2.19,2.19,0,0,1-1.42-2.13c0-1.42,1-2.62,3.66-2.62ZM97.32,159h1v-2.13h-.84c-.91,0-1.34.56-1.34,1.11A1.13,1.13,0,0,0,97.32,159Z"/><path d="M101,155.23h6.71v1.89h-2.41v5.48h-1.88v-5.48H101Z"/><path d="M114.54,161.86a4.39,4.39,0,0,1-2.82.92,3.87,3.87,0,1,1-.07-7.73,3.37,3.37,0,0,1,3.49,3.43,3.48,3.48,0,0,1-.11,1h-5.32a2,2,0,0,0,2.21,1.72,3.39,3.39,0,0,0,2.07-.67Zm-4.9-3.63h3.62a1.55,1.55,0,0,0-1.69-1.6A1.81,1.81,0,0,0,109.64,158.23Z"/><path d="M119,155.23H124V157H120.9v5.6H119Z"/><path d="M127.91,155.05a3.87,3.87,0,1,1-4,3.87A3.77,3.77,0,0,1,127.91,155.05Zm0,6a2.11,2.11,0,1,0-2-2.11A2,2,0,0,0,127.91,161Z"/><path d="M133,155.23h1.89v.71a3.2,3.2,0,0,1,2.27-.89c2,0,3.34,1.58,3.34,3.75a3.79,3.79,0,0,1-3.9,4,3.52,3.52,0,0,1-1.71-.36v3.46H133Zm1.89,2.39v3a2.53,2.53,0,0,0,1.55.43,2,2,0,0,0,2.06-2.18,1.84,1.84,0,0,0-1.93-2A2.26,2.26,0,0,0,134.88,157.62Z"/><path d="M145.12,155.05a3.87,3.87,0,1,1-4,3.87A3.77,3.77,0,0,1,145.12,155.05Zm0,6a2.11,2.11,0,1,0-2-2.11A2,2,0,0,0,145.12,161Z"/><path d="M149.08,160.85H150a7.84,7.84,0,0,0,1-3.85l.11-1.77h5.44v5.62h1.22v3.47h-1.76V162.6h-5.23v1.72h-1.75Zm2.9,0h2.73V157h-1.8l0,.75A6.87,6.87,0,0,1,152,160.85Z"/><path d="M158.61,155.76a5.37,5.37,0,0,1,2.6-.71c2.18,0,2.95,1.12,2.95,3.06v4.49h-1.64v-.85a2.61,2.61,0,0,1-2.18.95,2.15,2.15,0,0,1-2.31-2.26c0-1.62,1.2-2.39,2.69-2.39a3.09,3.09,0,0,1,1.67.47c.05-1.22-.28-1.89-1.38-1.89a4.3,4.3,0,0,0-1.93.5Zm3.78,4.68v-.75a2.09,2.09,0,0,0-1.3-.36c-.62,0-1.17.29-1.17.91s.45.87,1,.87A1.61,1.61,0,0,0,162.39,160.44Z"/><path d="M167.56,151.14H177V153h-3.71v9.58h-2V153h-3.71Z"/><path d="M175.77,155.76a5.45,5.45,0,0,1,2.61-.71c2.17,0,2.94,1.12,2.94,3.06v4.49h-1.63v-.85a2.62,2.62,0,0,1-2.18.95,2.15,2.15,0,0,1-2.31-2.26c0-1.62,1.2-2.39,2.69-2.39a3.09,3.09,0,0,1,1.67.47c.05-1.22-.28-1.89-1.38-1.89a4.3,4.3,0,0,0-1.93.5Zm3.79,4.68v-.75a2.09,2.09,0,0,0-1.3-.36c-.62,0-1.18.29-1.18.91s.46.87,1,.87A1.61,1.61,0,0,0,179.56,160.44Z"/><path d="M182.7,155.23h1.88v5.62h2.08v-5.62h1.88v5.62h2.1v-5.62h1.88v7.37H182.7Z"/><path d="M194.06,155.23h1.88v7.37h-1.88Zm4.14,3.51,3.17,3.86h-2.45L196,158.88l2.66-3.65H201Z"/><path d="M207.81,161.86a4.39,4.39,0,0,1-2.82.92,3.87,3.87,0,1,1-.07-7.73,3.37,3.37,0,0,1,3.49,3.43,3.48,3.48,0,0,1-.11,1H203a2,2,0,0,0,2.21,1.72,3.39,3.39,0,0,0,2.07-.67Zm-4.9-3.63h3.62a1.55,1.55,0,0,0-1.69-1.6A1.81,1.81,0,0,0,202.91,158.23Z"/><path d="M214.48,159.78h-3.22v2.82h-1.89v-7.37h1.89V158h3.22v-2.79h1.89v7.37h-1.89Z"/><path d="M217.13,155.23h6.71v1.89h-2.4v5.48h-1.89v-5.48h-2.42Z"/><path d="M224.73,155.76a5.37,5.37,0,0,1,2.6-.71c2.18,0,2.95,1.12,2.95,3.06v4.49h-1.64v-.85a2.61,2.61,0,0,1-2.18.95,2.15,2.15,0,0,1-2.31-2.26c0-1.62,1.2-2.39,2.69-2.39a3.09,3.09,0,0,1,1.67.47c.05-1.22-.28-1.89-1.38-1.89a4.3,4.3,0,0,0-1.93.5Zm3.78,4.68v-.75a2.09,2.09,0,0,0-1.3-.36c-.62,0-1.17.29-1.17.91s.45.87,1,.87A1.61,1.61,0,0,0,228.51,160.44Z"/><path d="M9.85,122.83c5.64,0,9.85,3.68,9.85,9.58,0,5.61-4.21,9.58-9.85,9.58S0,138.31,0,132.41C0,127,3.94,122.83,9.85,122.83Zm0,15.19c3.52,0,5.35-2.49,5.35-5.61a5.29,5.29,0,0,0-5.35-5.61,5.24,5.24,0,0,0-5.35,5.61A5.42,5.42,0,0,0,9.85,138Z"/><path d="M32.36,126.11c-1.7,1.8-3.5,1.38-5.51,2.44a3.86,3.86,0,0,0-2.07,3.15h.06A4.83,4.83,0,0,1,28.49,130c3.12,0,5.27,2.22,5.27,5.8A6.06,6.06,0,0,1,27.41,142c-4.16,0-6.6-3-6.6-7.65,0-4.31,1.09-8,4.58-9.58,2.41-1.06,3.66-.64,4.9-1.93ZM27.3,138.29A2.11,2.11,0,0,0,29.52,136a2,2,0,0,0-2.06-2.28,2.51,2.51,0,0,0-2.41,1.46C25.08,136.73,25.79,138.29,27.3,138.29Z"/><path d="M35.4,129.76h4V138h2.38v-8.21h4V138h2.38v-8.21h4V138h2v6.35H50.36v-2.64h-15Z"/><path d="M65.62,140.64A7.83,7.83,0,0,1,61,142c-3.92,0-6.46-2.51-6.46-6.27A6.15,6.15,0,0,1,61,129.45a5.58,5.58,0,0,1,5.77,5.61,6.73,6.73,0,0,1-.23,2H58.63a2.66,2.66,0,0,0,2.78,1.65,6,6,0,0,0,3.12-.85Zm-7.13-6.24h4.29a1.74,1.74,0,0,0-1.93-1.65A2.22,2.22,0,0,0,58.49,134.4Z"/><path d="M78.88,139.88A5.88,5.88,0,0,1,74,142c-4,0-6.54-2.51-6.54-6.27a6.11,6.11,0,0,1,6.3-6.27,6.59,6.59,0,0,1,4.87,1.69l-1.82,3.12a3.39,3.39,0,0,0-2.55-1.11,2.5,2.5,0,0,0-2.56,2.57,2.59,2.59,0,0,0,2.62,2.57A3.58,3.58,0,0,0,77,137Z"/><path d="M79.12,129.76H90v4H86.54v8h-4v-8H79.12Z"/><path d="M91.36,129.76c1,0,3.09-.16,5.11-.16,3.6,0,5.63,1,5.63,3.18a2.61,2.61,0,0,1-2.09,2.6v.05a2.86,2.86,0,0,1,2.36,2.67c0,2.46-1.91,3.74-5.88,3.74-1.48,0-4-.16-5.13-.16Zm4,3.1v1.67h1.32c.61,0,1.25-.24,1.25-.9,0-.45-.38-.85-1.06-.85C96.33,132.78,95.49,132.83,95.33,132.86Zm0,4v1.64c.29,0,1.06.11,1.61.11.74,0,1.22-.4,1.22-.85s-.56-.9-1.56-.9Z"/><path d="M114.71,140.64a7.82,7.82,0,0,1-4.63,1.35c-3.92,0-6.46-2.51-6.46-6.27a6.15,6.15,0,0,1,6.46-6.27,5.58,5.58,0,0,1,5.77,5.61,6.36,6.36,0,0,1-.24,2h-7.89a2.66,2.66,0,0,0,2.78,1.65,6,6,0,0,0,3.12-.85Zm-7.12-6.24h4.29a1.75,1.75,0,0,0-1.94-1.65A2.21,2.21,0,0,0,107.59,134.4Z"/><path d="M125,137.57H121.2v4.11h-4V129.76h4v4.11H125v-4.11h4v11.92h-4Z"/><path d="M139.12,137.57h-3.83v4.11h-4V129.76h4v4.11h3.83v-4.11h4v11.92h-4Z"/><path d="M145.4,129.76h4v2.78h1.25c4.18,0,5.42,2.17,5.42,4.29,0,2.36-1.53,4.85-5.71,4.85H145.4Zm4,6v2.52h.88c1.05,0,1.56-.48,1.56-1.25s-.45-1.27-1.54-1.27Zm7.81-6h4v11.92h-4Z"/><path d="M163.46,141.68V129.76h4V136l4.24-6.22h4v11.92h-4v-6.23l-4.24,6.23Zm5.08-17.74c0,1.06.4,1.53,1.12,1.53s1-.47,1-1.53h3.44a4.17,4.17,0,0,1-4.44,4.5c-3.29,0-4.56-2-4.56-4.5Z"/><path d="M193.38,139.88a5.9,5.9,0,0,1-4.87,2.11c-4,0-6.54-2.51-6.54-6.27a6.11,6.11,0,0,1,6.3-6.27,6.59,6.59,0,0,1,4.87,1.69l-1.82,3.12a3.39,3.39,0,0,0-2.55-1.11,2.5,2.5,0,0,0-2.56,2.57,2.59,2.59,0,0,0,2.62,2.57,3.58,3.58,0,0,0,2.7-1.33Z"/><path d="M200.82,129.45c4.08,0,6.62,2.7,6.62,6.27S204.9,142,200.82,142s-6.62-2.7-6.62-6.27S196.75,129.45,200.82,129.45Zm0,8.84a2.36,2.36,0,0,0,2.39-2.57,2.39,2.39,0,1,0-2.39,2.57Z"/><path d="M209.09,129.76c1,0,3.09-.16,5.11-.16,3.6,0,5.63,1,5.63,3.18a2.61,2.61,0,0,1-2.09,2.6v.05a2.86,2.86,0,0,1,2.36,2.67c0,2.46-1.91,3.74-5.88,3.74-1.48,0-4.05-.16-5.13-.16Zm4,3.1v1.67h1.32c.61,0,1.25-.24,1.25-.9,0-.45-.38-.85-1.06-.85C214.06,132.78,213.22,132.83,213.06,132.86Zm0,4v1.64c.29,0,1.06.11,1.61.11.74,0,1.22-.4,1.22-.85s-.56-.9-1.56-.9Z"/><path d="M232.44,140.64a7.82,7.82,0,0,1-4.63,1.35c-3.92,0-6.46-2.51-6.46-6.27a6.15,6.15,0,0,1,6.46-6.27,5.58,5.58,0,0,1,5.77,5.61,6.36,6.36,0,0,1-.24,2h-7.89a2.66,2.66,0,0,0,2.78,1.65,6,6,0,0,0,3.12-.85Zm-7.12-6.24h4.29a1.75,1.75,0,0,0-1.94-1.65A2.21,2.21,0,0,0,225.32,134.4Z"/><path d="M234,129.76h10.85v4h-3.44v8h-4v-8H234Z"/><path class="cls-1" d="M135.31,21.8h3.63a13.53,13.53,0,0,1,13.53,13.53V71.26a0,0,0,0,1,0,0H121.77a0,0,0,0,1,0,0V35.34A13.53,13.53,0,0,1,135.31,21.8Z"/><path class="cls-2" d="M137.95,21.8h3.63a13.53,13.53,0,0,1,13.53,13.53V71.26a0,0,0,0,1,0,0H124.41a0,0,0,0,1,0,0V35.34A13.53,13.53,0,0,1,137.95,21.8Z"/><rect class="cls-3" x="135.75" y="65.31" width="33.59" height="37.98"/><polygon class="cls-4" points="138.16 106.76 98.77 106.76 98.77 10.79 138.16 0 138.16 106.76"/><circle class="cls-5" cx="185.72" cy="92.03" r="9.74"/><rect class="cls-5" x="46.95" y="65.13" width="15.08" height="35.61" rx="6.65"/><rect class="cls-1" x="71.47" y="73.13" width="29.69" height="33.63"/><rect class="cls-5" x="86.24" y="42.98" width="14.92" height="33.63"/><line class="cls-2" x1="42.15" y1="106.76" x2="201.59" y2="106.76"/><circle class="cls-2" cx="188.46" cy="92.21" r="9.74"/><line class="cls-2" x1="188.46" y1="101.95" x2="188.46" y2="106.68"/><rect class="cls-2" x="138.13" y="65.31" width="31.39" height="41.45"/><path class="cls-6" d="M153.09,81h1.47a5.5,5.5,0,0,1,5.5,5.5v20.31a0,0,0,0,1,0,0H147.6a0,0,0,0,1,0,0V86.45a5.5,5.5,0,0,1,5.5-5.5Z"/><line class="cls-2" x1="57.23" y1="101.73" x2="57.23" y2="106.76"/><rect class="cls-2" x="49.69" y="65.31" width="15.08" height="35.61" rx="6.65"/><polygon class="cls-7" points="138.16 106.76 101.15 106.76 101.15 14.27 138.16 4.62 138.16 106.76"/><line class="cls-2" x1="139.87" y1="43.59" x2="154.32" y2="43.59"/><line class="cls-2" x1="101.15" y1="26.33" x2="137.06" y2="26.33"/><line class="cls-2" x1="101.15" y1="49.7" x2="137.06" y2="49.7"/><line class="cls-2" x1="101.15" y1="60.47" x2="137.06" y2="60.47"/><line class="cls-2" x1="137.06" y1="82.01" x2="101.15" y2="82.01"/><line class="cls-2" x1="101.15" y1="92.78" x2="137.06" y2="92.78"/><rect class="cls-2" x="88.62" y="46.45" width="12.54" height="30.16"/><line class="cls-2" x1="95.19" y1="52.22" x2="95.19" y2="54.14"/><line class="cls-2" x1="95.19" y1="60.3" x2="95.19" y2="62.22"/><line class="cls-2" x1="95.19" y1="68.38" x2="95.19" y2="70.3"/><rect class="cls-2" x="73.85" y="76.61" width="27.31" height="30.16"/><line class="cls-2" x1="79.47" y1="82.5" x2="84.6" y2="82.5"/><line class="cls-2" x1="79.47" y1="88.76" x2="84.6" y2="88.76"/><line class="cls-2" x1="79.47" y1="95.03" x2="84.6" y2="95.03"/><line class="cls-2" x1="79.47" y1="101.29" x2="84.6" y2="101.29"/><line class="cls-2" x1="90.4" y1="82.5" x2="95.53" y2="82.5"/><line class="cls-2" x1="90.4" y1="88.76" x2="95.53" y2="88.76"/><line class="cls-2" x1="90.4" y1="95.03" x2="95.53" y2="95.03"/><line class="cls-2" x1="90.4" y1="101.29" x2="95.53" y2="101.29"/></g></g></svg>