<?xml version="1.0" encoding="utf-8"?>
<!-- Generator: Adobe Illustrator 23.0.0, SVG Export Plug-In . SVG Version: 6.00 Build 0)  -->
<svg version="1.1" id="Capa_1" xmlns="http://www.w3.org/2000/svg" xmlns:xlink="http://www.w3.org/1999/xlink" x="0px" y="0px"
	 viewBox="0 0 512 512" style="enable-background:new 0 0 512 512;" xml:space="preserve">
<style type="text/css">
	.st0{fill:#3CCE52;stroke:#3CCE52;stroke-width:9;stroke-miterlimit:10;}
	.st1{stroke:#000000;stroke-width:9;stroke-miterlimit:10;}
</style>
<g>
	<g>
		<path class="st0" d="M360.6,125.2c-3.5,0-6.8,0.8-9.7,2.1l-39.6-39.6c1.4-3,2.1-6.3,2.1-9.7c0-13-10.6-23.6-23.6-23.6
			S266.2,65,266.2,78c0,4.5,1.3,8.7,3.4,12.2l-4.7,4.7c-20.5-45-66-76.4-118.6-76.4c-71.8,0-130.3,58.4-130.3,130.3
			c0,2.9,0.1,5.8,0.3,8.7C6.9,160.5,0,169.4,0,179.9c0,13,10.6,23.6,23.6,23.6c1.5,0,2.9-0.1,4.3-0.4c6.7,14.5,15.8,27.5,27.3,38.8
			c1.5,1.4,3.4,2.1,5.2,2.1c1.9,0,3.9-0.8,5.4-2.3c2.9-3,2.8-7.7-0.1-10.6C55.3,220.9,47,209,41,195.7c3.8-4.2,6.1-9.7,6.1-15.8
			c0-3.8-0.9-7.3-2.5-10.5l45.8-45.8c3.2,1.6,6.7,2.5,10.5,2.5c3.5,0,6.9-0.8,9.9-2.2l50.4,50.4c0.1,0.1,0.3,0.3,0.4,0.4
			c-1.4,3-2.2,6.4-2.2,10c0,13,10.6,23.6,23.6,23.6s23.6-10.6,23.6-23.6c0-3-0.6-5.9-1.6-8.6l53.5-53.5c2,8.5,3,17.3,3,26.3
			c0,63.6-51.7,115.3-115.3,115.3c-20.2,0-40.1-5.3-57.5-15.3c-3.6-2.1-8.2-0.8-10.2,2.8c-2.1,3.6-0.8,8.2,2.8,10.2
			c19.7,11.3,42.2,17.3,65,17.3c71.8,0,130.3-58.4,130.3-130.3c0-13.4-2-26.3-5.8-38.5l10.3-10.3c2.7,1.1,5.6,1.6,8.6,1.6
			c4.1,0,7.9-1,11.2-2.9l38.9,38.9c-1.8,3.3-2.9,7.2-2.9,11.2c0,13,10.6,23.6,23.6,23.6s23.6-10.6,23.6-23.6
			S373.6,125.2,360.6,125.2z M23.6,188.5c-4.7,0-8.6-3.8-8.6-8.6s3.8-8.6,8.6-8.6s8.6,3.8,8.6,8.6S28.3,188.5,23.6,188.5z
			 M101,111.1c-4.7,0-8.6-3.8-8.6-8.6c0-4.7,3.8-8.6,8.6-8.6s8.6,3.8,8.6,8.6S105.7,111.1,101,111.1z M183.1,193.2
			c-4.7,0-8.6-3.8-8.6-8.6c0-4.7,3.8-8.6,8.6-8.6s8.6,3.8,8.6,8.6C191.7,189.3,187.8,193.2,183.1,193.2z M195.4,164.5
			c-3.6-2.2-7.8-3.4-12.2-3.4c-4,0-7.8,1-11.1,2.8c0,0-0.1-0.1-0.1-0.1l-50.1-50.1c1.8-3.3,2.8-7.1,2.8-11c0-13-10.6-23.6-23.6-23.6
			c-13,0-23.6,10.6-23.6,23.6c0,3.8,0.9,7.3,2.5,10.5L34,158.8c-0.8-0.4-1.7-0.8-2.6-1.1c-0.2-3-0.3-5.9-0.3-8.9
			c0-63.6,51.7-115.3,115.3-115.3c48.6,0,90.2,30.2,107.2,72.8L195.4,164.5z M289.8,86.5c-4.7,0-8.6-3.8-8.6-8.6s3.8-8.6,8.6-8.6
			s8.6,3.8,8.6,8.6S294.5,86.5,289.8,86.5z M360.6,157.3c-4.7,0-8.6-3.8-8.6-8.6c0-4.7,3.8-8.6,8.6-8.6c4.7,0,8.6,3.8,8.6,8.6
			C369.1,153.5,365.3,157.3,360.6,157.3z"/>
	</g>
</g>
<g>
	<g>
		<path class="st1" d="M504.5,478.5h-3.3V314.3c0-4.1-3.4-7.5-7.5-7.5s-7.5,3.4-7.5,7.5v164.2h-29V156.3h29v127.4
			c0,4.1,3.4,7.5,7.5,7.5s7.5-3.4,7.5-7.5V148.8c0-4.1-3.4-7.5-7.5-7.5h-44c-4.1,0-7.5,3.4-7.5,7.5v329.7h-15.1V214.8
			c0-4.1-3.4-7.5-7.5-7.5h-44c-4.1,0-7.5,3.4-7.5,7.5v263.7h-15.1V271.2c0-4.1-3.4-7.5-7.5-7.5h-44c-4.1,0-7.5,3.4-7.5,7.5v207.3
			H279V325.8c0-4.1-3.4-7.5-7.5-7.5h-44c-4.1,0-7.5,3.4-7.5,7.5v152.7H205V362.3c0-4.1-3.4-7.5-7.5-7.5h-44c-4.1,0-7.5,3.4-7.5,7.5
			v43.4c0,4.1,3.4,7.5,7.5,7.5s7.5-3.4,7.5-7.5v-35.9h29v108.7h-29v-42.2c0-4.1-3.4-7.5-7.5-7.5s-7.5,3.4-7.5,7.5v42.2h-15.1V362.3
			c0-4.1-3.4-7.5-7.5-7.5h-44c-4.1,0-7.5,3.4-7.5,7.5v116.2H14.5c-4.1,0-7.5,3.4-7.5,7.5s3.4,7.5,7.5,7.5h490v0
			c4.1,0,7.5-3.4,7.5-7.5S508.6,478.5,504.5,478.5z M115.9,478.5H87V369.8h29V478.5z M264,478.5h-29V333.3h29V478.5z M338.1,478.5
			h-29V278.7h29V478.5z M412.1,478.5h-29V222.3h29V478.5z"/>
	</g>
</g>
<g>
	<g>
		<path class="st1" d="M493.7,30.8c-4.1,0-7.5,3.4-7.5,7.5v1.6c0,4.1,3.4,7.5,7.5,7.5c4.1,0,7.5-3.4,7.5-7.5v-1.6
			C501.2,34.1,497.8,30.8,493.7,30.8z"/>
	</g>
</g>
<g>
	<g>
		<path class="st1" d="M468.2,30.8c-4.1,0-7.5,3.4-7.5,7.5v1.6c0,4.1,3.4,7.5,7.5,7.5s7.5-3.4,7.5-7.5v-1.6
			C475.7,34.1,472.3,30.8,468.2,30.8z"/>
	</g>
</g>
<g>
	<g>
		<path class="st1" d="M493.5,62.3h-25.4c-4.1,0-7.5,3.4-7.5,7.5s3.4,7.5,7.5,7.5h25.4c4.1,0,7.5-3.4,7.5-7.5S497.7,62.3,493.5,62.3
			z"/>
	</g>
</g>
<g>
	<g>
		<path class="st1" d="M493.5,86.5h-67.6c-4.1,0-7.5,3.4-7.5,7.5s3.4,7.5,7.5,7.5h67.6c4.1,0,7.5-3.4,7.5-7.5S497.7,86.5,493.5,86.5
			z"/>
	</g>
</g>
</svg>
