<?xml version="1.0" encoding="utf-8"?>
<!-- Generator: Adobe Illustrator 23.0.0, SVG Export Plug-In . SVG Version: 6.00 Build 0)  -->
<svg version="1.1" id="Capa_1" xmlns="http://www.w3.org/2000/svg" xmlns:xlink="http://www.w3.org/1999/xlink" x="0px" y="0px"
	 viewBox="0 0 480 480" style="enable-background:new 0 0 480 480;" xml:space="preserve">
<style type="text/css">
	.st0{stroke:#000000;stroke-width:9;stroke-miterlimit:10;}
	.st1{fill:#3CCE52;stroke:#3CCE52;stroke-width:9;stroke-miterlimit:10;}
</style>
<g>
	<g>
		<path class="st0" d="M416.3,400c-21.6,0-24-9.6-24-14.4c30.4-12.8,48.8-43.2,48-76c0-1.6,0-4.8,0-5.6c0-40-32-72-72-72h-96
			c-4.8,0-8,3.2-8,8c0,18.4,7.2,36,19.2,48.8c-1.6,8-3.2,15.2-3.2,23.2c0,32,19.2,60.8,48,73.6c0,4.8-2.4,14.4-24,14.4
			c-22.4,0-40,17.6-40,40v40h16v-40c0-13.6,10.4-24,24-24c24.8,0,40-12,40-32v-4c0-3.2-2.4-6.4-5.6-7.2
			c-25.6-9.6-42.4-33.6-42.4-60.8c0-4,0-8,0.8-11.2c11.2,7.2,24.8,11.2,39.2,11.2h88c0,27.2-16.8,51.2-42.4,60
			c-3.2,0.8-5.6,4-5.6,7.2v4.8c0,20,15.2,32,40,32c13.6,0,24,10.4,24,24v40h16v-40C456.3,417.6,438.7,400,416.3,400z M336.3,296
			c-28,0-51.2-20.8-55.2-48h87.2c28,0,51.2,20.8,55.2,48H336.3z"/>
	</g>
</g>
<g>
	<g>
		<path class="st1" d="M479.5,216V80c0.8-17.6-13.6-32-31.2-32h-160V32c0-17.6-14.4-32-32-32h-224c-17.6,0-32,14.4-32,32v176
			c0,33.6,12,57.6,36,72l8-13.6c-18.4-12-28-30.4-28-58.4V32c0-8.8,7.2-16,16-16h224c8.8,0,16,7.2,16,16v152c0,8.8-7.2,16-16,16
			H113.9c-24.8,0-46.4,18.4-49.6,43.2c0,1.6,0,3.2,0,4.8h16c0-0.8,0-2.4,0-3.2C82.7,228,97.1,216,113.9,216h142.4
			c17.6,0,32-14.4,32-32h96c22.4,0,40,17.6,40,40h16c0-31.2-24.8-56-56-56h-96V64h160c8.8,0,16,7.2,16,16v136
			c0.8,16.8-4,32.8-14.4,46.4l12,10.4C474.7,256.8,481.1,236.8,479.5,216z"/>
	</g>
</g>
<g>
	<g>
		<path class="st0" d="M200.3,408c-12.8,0-23.2-9.6-24-22.4c40.8-17.6,59.2-64.8,41.6-105.6s-64.8-59.2-105.6-41.6
			S53.1,303.2,70.7,344c8,18.4,23.2,33.6,41.6,41.6c-0.8,12.8-11.2,22.4-24,22.4c-22.4,0-40,17.6-40,40v32h16v-32
			c0-13.6,10.4-24,24-24c22.4,0,40-17.6,40-40v-4c0-3.2-2.4-6.4-5.6-7.2c-22.4-8-39.2-28-42.4-52h24c1.6,0,3.2-0.8,4.8-1.6
			l19.2-12.8l19.2,12.8c1.6,0.8,3.2,1.6,4.8,1.6h55.2c-3.2,24-19.2,44-42.4,52c-3.2,0.8-5.6,4-5.6,7.2v4c0,22.4,17.6,40,40,40
			c13.6,0,24,10.4,24,24v32h16v-32C240.3,425.6,222.7,408,200.3,408z M154.7,304l-21.6-14.4c-2.4-1.6-6.4-1.6-8.8,0L101.9,304H81.1
			c4-35.2,36-60,71.2-55.2c28.8,4,52,26.4,55.2,55.2H154.7z"/>
	</g>
</g>
<g>
	<g>
		<rect x="40.3" y="40" class="st1" width="168" height="16"/>
	</g>
</g>
<g>
	<g>
		<rect x="40.3" y="72" class="st1" width="48" height="16"/>
	</g>
</g>
<g>
	<g>
		<rect x="104.3" y="72" class="st1" width="120" height="16"/>
	</g>
</g>
<g>
	<g>
		<rect x="40.3" y="104" class="st1" width="16" height="16"/>
	</g>
</g>
<g>
	<g>
		<rect x="72.3" y="104" class="st1" width="64" height="16"/>
	</g>
</g>
<g>
	<g>
		<rect x="152.3" y="104" class="st1" width="72" height="16"/>
	</g>
</g>
<g>
	<g>
		<rect x="336.3" y="96" class="st1" width="112" height="16"/>
	</g>
</g>
<g>
	<g>
		<rect x="304.3" y="128" class="st1" width="56" height="16"/>
	</g>
</g>
<g>
	<g>
		<rect x="376.3" y="128" class="st1" width="72" height="16"/>
	</g>
</g>
<g>
	<g>
		<rect x="304.3" y="96" class="st1" width="16" height="16"/>
	</g>
</g>
</svg>
