<?xml version="1.0" encoding="utf-8"?>
<!-- Generator: Adobe Illustrator 23.0.0, SVG Export Plug-In . SVG Version: 6.00 Build 0)  -->
<svg version="1.1" id="Capa_1" xmlns="http://www.w3.org/2000/svg" xmlns:xlink="http://www.w3.org/1999/xlink" x="0px" y="0px"
	 viewBox="0 0 512 512" style="enable-background:new 0 0 512 512;" xml:space="preserve">
<style type="text/css">
	.st0{fill:#3CCE52;stroke:#3CCE52;stroke-width:9;stroke-miterlimit:10;}
	.st1{stroke:#000000;stroke-width:9;stroke-miterlimit:10;}
</style>
<g>
	<g>
		<path class="st0" d="M98.6,94.6l-18.2-8.2c-5.9-2.6-10.6-7.3-13.2-13.2l-8.2-18.2c-1.2-2.7-3.9-4.4-6.8-4.4c-3,0-5.6,1.7-6.8,4.4
			l-8.2,18.2c-2.6,5.9-7.3,10.6-13.2,13.2L5.6,94.6c-2.7,1.2-4.4,3.9-4.4,6.8s1.7,5.6,4.4,6.8l18.2,8.2c5.9,2.6,10.6,7.3,13.2,13.2
			l8.2,18.2c1.2,2.7,3.9,4.4,6.8,4.4c3,0,5.6-1.7,6.8-4.4l8.2-18.2c2.6-5.9,7.3-10.6,13.2-13.2l18.2-8.2c2.7-1.2,4.4-3.9,4.4-6.8
			C103,98.4,101.3,95.8,98.6,94.6z M74.2,102.7c-9.2,4.1-16.6,11.5-20.8,20.8l-1.3,3l-1.3-3c-4.1-9.2-11.5-16.6-20.8-20.8l-3-1.3
			l3-1.3c9.2-4.1,16.6-11.5,20.8-20.8l1.3-3l1.3,3c4.1,9.2,11.5,16.6,20.8,20.8l3,1.3L74.2,102.7z"/>
	</g>
</g>
<g>
	<g>
		<path class="st0" d="M493.8,423.2l-18.2-8.2c-5.9-2.6-10.6-7.3-13.2-13.2l-8.2-18.2c-1.2-2.7-3.9-4.4-6.8-4.4s-5.6,1.7-6.8,4.4
			l-8.2,18.2c-2.6,5.9-7.3,10.6-13.2,13.2l-18.2,8.2c-2.7,1.2-4.4,3.9-4.4,6.8s1.7,5.6,4.4,6.8l18.2,8.2c5.9,2.6,10.6,7.3,13.2,13.2
			l8.2,18.2c1.2,2.7,3.9,4.4,6.8,4.4s5.6-1.7,6.8-4.4l8.2-18.2c2.6-5.9,7.3-10.6,13.2-13.2l18.2-8.2c2.7-1.2,4.4-3.9,4.4-6.8
			C498.2,427.1,496.5,424.4,493.8,423.2z M469.4,431.4c-9.2,4.1-16.6,11.5-20.8,20.8l-1.3,3l-1.3-3c-4.1-9.2-11.5-16.6-20.8-20.8
			l-3-1.3l3-1.3c9.2-4.1,16.6-11.5,20.8-20.8l1.3-3l1.3,3c4.1,9.2,11.5,16.6,20.8,20.8l3,1.3L469.4,431.4z"/>
	</g>
</g>
<g>
	<g>
		<path class="st0" d="M335.6,39.2L319.4,32c-5-2.3-9.1-6.3-11.3-11.3l-7.3-16.2c-1.2-2.7-3.9-4.4-6.8-4.4s-5.6,1.7-6.8,4.4
			l-7.3,16.2c-2.3,5-6.3,9.1-11.3,11.3l-16.2,7.3c-2.7,1.2-4.4,3.9-4.4,6.8c0,3,1.7,5.6,4.4,6.8l16.2,7.3c5,2.3,9.1,6.3,11.3,11.3
			l7.3,16.2c1.2,2.7,3.9,4.4,6.8,4.4s5.6-1.7,6.8-4.4l7.3-16.2c2.3-5,6.3-9.1,11.3-11.3l16.2-7.3c2.7-1.2,4.4-3.9,4.4-6.8
			C340,43.1,338.3,40.4,335.6,39.2z M313.2,46.5c-8.4,3.8-15.1,10.5-18.9,18.9l-0.4,0.9l-0.4-0.9c-3.8-8.4-10.5-15.1-18.9-18.9
			l-0.9-0.4l0.9-0.4c8.4-3.8,15.1-10.5,18.9-18.9l0.4-0.9l0.4,0.9c3.8,8.4,10.5,15.1,18.9,18.9l0.9,0.4L313.2,46.5z"/>
	</g>
</g>
<g>
	<g>
		<path class="st1" d="M501.7,48.9L464,11.2c-12.6-12.6-33.1-12.6-45.7,0c-2.9,2.9-2.9,7.7,0,10.6c2.9,2.9,7.7,2.9,10.6,0
			c6.8-6.8,17.8-6.8,24.5,0l37.7,37.7c6.8,6.8,6.8,17.8,0,24.5l-27.3,27.3l-62.2-62.2l5.4-5.4c2.9-2.9,2.9-7.7,0-10.6
			c-2.9-2.9-7.7-2.9-10.6,0L294.1,135.4c-4.8-1.9-9.6-3.6-14.6-5l-5.7-39.9c-0.5-3.7-3.7-6.4-7.4-6.4h-54.8c-3.7,0-6.9,2.7-7.4,6.4
			l-5.7,39.9c-11.3,3.2-22.2,7.7-32.4,13.4l-32.2-24.2c-3-2.2-7.2-1.9-9.8,0.7l-38.8,38.8c-2.6,2.6-2.9,6.8-0.7,9.8l24.2,32.2
			c-5.8,10.2-10.3,21.1-13.4,32.4l-39.9,5.7c-3.7,0.5-6.4,3.7-6.4,7.4v54.8c0,3.7,2.7,6.9,6.4,7.4l39.9,5.7c1.4,4.9,3,9.8,5,14.6
			l-57.4,57.4c-1,1-1.7,2.2-2,3.5l-21,59.3l0,0L1.3,502c-1,2.7-0.3,5.8,1.8,7.8c1.4,1.4,3.3,2.2,5.3,2.2c0.8,0,1.7-0.1,2.5-0.4
			l111.8-39.5c1.3-0.3,2.5-1,3.5-2l57.3-57.3c4.9,2,9.9,3.7,14.9,5.1l5.7,39.9c0.5,3.7,3.7,6.4,7.4,6.4h54.8c3.7,0,6.9-2.7,7.4-6.4
			l5.7-39.9c11.3-3.2,22.2-7.7,32.4-13.4l32.2,24.2c3,2.2,7.2,1.9,9.8-0.7l38.8-38.8c2.6-2.6,2.9-6.8,0.7-9.8l-24.2-32.2
			c5.8-10.3,10.3-21.1,13.4-32.4l39.9-5.7c3.7-0.5,6.4-3.7,6.4-7.4v-54.8c0-3.7-2.7-6.9-6.4-7.4l-39.9-5.7c-1.4-5.1-3.1-10-5.1-14.9
			L501.7,94.6C514.3,82,514.3,61.5,501.7,48.9z M20.7,492.2l9.4-26.5l17.1,17.1L20.7,492.2z M62.8,477.3L35.6,450l15.7-44.3
			l55.9,55.9L62.8,477.3z M414,253.2V295l-38.4,5.5c-3,0.4-5.5,2.7-6.2,5.6c-3.2,13.3-8.5,25.9-15.6,37.6c-1.6,2.6-1.4,5.9,0.4,8.4
			l23.3,31l-29.6,29.6l-31-23.3c-2.5-1.8-5.8-2-8.4-0.4c-11.7,7.1-24.3,12.3-37.6,15.6c-3,0.7-5.2,3.2-5.6,6.2l-5.5,38.4H218
			l-5.5-38.4c-0.4-3-2.7-5.5-5.6-6.2c-3.9-1-7.8-2.1-11.7-3.5l41-41c1,0,1.9,0.1,2.8,0.1c47.4,0,86-38.6,86-86
			c0-2.1-0.1-4.1-0.2-6.2c0,0,0,0,0,0c0-0.1,0-0.1,0-0.2c-0.1-1.3-0.2-2.5-0.4-3.8c0,0,0,0,0,0c-4.8-40.7-38.1-72.7-79.4-75.6
			c-0.1,0-0.1,0-0.2,0c0,0,0,0,0,0c-1.9-0.1-3.8-0.2-5.8-0.2c-47.4,0-86,38.6-86,86c0,0.8,0,1.6,0,2.4l-11.6,11.6
			c-0.2,0.2-0.4,0.4-0.5,0.6c-1.1,1.4-1.7,3.1-1.7,4.7c0,1.9,0.7,3.8,2.2,5.3c0.2,0.2,0.4,0.4,0.6,0.5c2.2,1.8,5.1,2.1,7.6,1.1
			c0.9-0.4,1.7-0.9,2.5-1.6l95.1-95.1c32.5,3.7,58.5,29.6,62.4,62.1L286,289.1c-2.9,2.9-2.9,7.7,0,10.6c1.5,1.5,3.4,2.2,5.3,2.2
			s3.8-0.7,5.3-2.2l12.1-12.1c-5.5,28.4-27.9,50.8-56.3,56.3l22.9-22.9c2.9-2.9,2.9-7.7,0-10.6c-2.9-2.9-7.7-2.9-10.6,0c0,0,0,0,0,0
			L120.9,454.2L58.7,392l72-72c0.7-0.7,1.3-1.6,1.6-2.5c0.4-0.9,0.5-1.9,0.5-2.8c0-1.9-0.7-3.8-2.2-5.3c-0.7-0.7-1.6-1.3-2.5-1.6
			c-2.3-0.9-4.9-0.7-6.9,0.7c-0.4,0.3-0.8,0.6-1.2,1l-8.2,8.2c-1.3-3.8-2.4-7.6-3.4-11.4c-0.7-3-3.2-5.2-6.2-5.6L63.9,295v-41.8
			l38.4-5.5c3-0.4,5.5-2.7,6.2-5.6c3.2-13.3,8.5-25.9,15.6-37.6c1.6-2.6,1.4-5.9-0.4-8.4l-23.3-31l29.6-29.6l31,23.3
			c2.5,1.8,5.8,2,8.4,0.4c11.7-7.1,24.3-12.3,37.6-15.6c3-0.7,5.2-3.2,5.6-6.2l5.5-38.4h41.8l5.5,38.4c0.4,3,2.7,5.5,5.6,6.2
			c7.5,1.8,14.8,4.3,21.8,7.4c0,0,0,0,0,0c1.4,0.6,2.7,1.2,4.1,1.9c0,0,0,0,0.1,0c1.3,0.6,2.5,1.2,3.8,1.9c0.3,0.2,0.7,0.4,1,0.5
			c1,0.5,1.9,1,2.8,1.5c1.3,0.8,2.7,1.5,4,2.3c0.7,0.4,1.4,0.7,2.1,0.9c2.2,0.5,4.5,0.1,6.3-1.3l31-23.3l29.6,29.6l-23.3,31
			c-0.9,1.2-1.4,2.7-1.5,4.1c-0.1,1.5,0.3,3,1.1,4.3c0.8,1.3,1.5,2.6,2.3,3.9c0.5,0.9,1,1.8,1.5,2.7c0.2,0.4,0.4,0.7,0.6,1.1
			c0.6,1.2,1.2,2.4,1.8,3.6c0,0.1,0.1,0.1,0.1,0.2c0.6,1.3,1.2,2.6,1.8,4c0,0,0,0,0,0c3.1,7.1,5.7,14.5,7.5,22.1
			c0.7,3,3.2,5.2,6.2,5.6L414,253.2z M225,204.5l-55.7,55.7C174.9,232.2,197,210.1,225,204.5z M370.8,204.2c-0.5-1-1.1-2-1.7-3.1
			l24.2-32.2c2.2-3,1.9-7.2-0.7-9.8l-38.8-38.8c-2.6-2.6-6.8-2.9-9.8-0.7l-32.2,24.2c-1.1-0.6-2.2-1.2-3.3-1.8l43-43l62.2,62.2
			L370.8,204.2z M424.4,150.7l-62.2-62.2L391,59.7l62.2,62.2L424.4,150.7z"/>
	</g>
</g>
</svg>
