<?xml version="1.0" standalone="no"?>
<!DOCTYPE svg PUBLIC "-//W3C//DTD SVG 1.1//EN" "http://www.w3.org/Graphics/SVG/1.1/DTD/svg11.dtd" >
<svg xmlns="http://www.w3.org/2000/svg">
<metadata>Generated by IcoMoon</metadata>
<defs>
<font id="icomoon" horiz-adv-x="1024">
<font-face units-per-em="1024" ascent="960" descent="-64" />
<missing-glyph horiz-adv-x="1024" />
<glyph unicode="&#x20;" horiz-adv-x="512" d="" />
<glyph unicode="&#xe900;" glyph-name="instagram" d="M704 960h-384c-176.704 0-320-143.296-320-320v-384c0-176.704 143.296-320 320-320h384c176.704 0 320 143.296 320 320v384c0 176.704-143.296 320-320 320zM928 256c0-123.52-100.48-224-224-224h-384c-123.52 0-224 100.48-224 224v384c0 123.52 100.48 224 224 224h384c123.52 0 224-100.48 224-224v-384zM512 704c-141.376 0-256-114.624-256-256s114.624-256 256-256 256 114.624 256 256-114.624 256-256 256zM512 288c-88.192 0-160 71.808-160 160 0 88.256 71.808 160 160 160s160-71.744 160-160c0-88.192-71.808-160-160-160zM821.312 723.2c0-18.84-15.272-34.112-34.112-34.112s-34.112 15.272-34.112 34.112c0 18.84 15.272 34.112 34.112 34.112s34.112-15.272 34.112-34.112z" />
<glyph unicode="&#xe901;" d="M888.107 106.667c-46.080 0-51.2 20.48-51.2 30.72 64.853 27.307 104.107 92.16 102.4 162.133 0 3.413 0 10.24 0 11.947 0 85.333-68.267 153.6-153.6 153.6h-204.8c-10.24 0-17.067-6.827-17.067-17.067 0-39.253 15.36-76.8 40.96-104.107-3.413-17.067-6.827-32.427-6.827-49.493 0-68.267 40.96-129.707 102.4-157.013 0-10.24-5.12-30.72-51.2-30.72-47.787 0-85.333-37.547-85.333-85.333v-85.333h34.133v85.333c0 29.013 22.187 51.2 51.2 51.2 52.907 0 85.333 25.6 85.333 68.267v8.533c0 6.827-5.12 13.653-11.947 15.36-54.613 20.48-90.453 71.68-90.453 129.707 0 8.533 0 17.067 1.707 23.893 23.893-15.36 52.907-23.893 83.627-23.893h187.733c0-58.027-35.84-109.227-90.453-128-6.827-1.707-11.947-8.533-11.947-15.36v-10.24c0-42.667 32.427-68.267 85.333-68.267 29.013 0 51.2-22.187 51.2-51.2v-85.333h34.133v85.333c0 47.787-37.547 85.333-85.333 85.333zM717.44 328.533c-59.733 0-109.227 44.373-117.76 102.4h186.027c59.733 0 109.227-44.373 117.76-102.4h-186.027z" />
<glyph unicode="&#xe902;" d="M1022.933 499.2v290.133c1.707 37.547-29.013 68.267-66.56 68.267h-341.333v34.133c0 37.547-30.72 68.267-68.267 68.267h-477.867c-37.547 0-68.267-30.72-68.267-68.267v-375.467c0-71.68 25.6-122.88 76.8-153.6l17.067 29.013c-39.253 25.6-59.733 64.853-59.733 124.587v375.467c0 18.773 15.36 34.133 34.133 34.133h477.867c18.773 0 34.133-15.36 34.133-34.133v-324.267c0-18.773-15.36-34.133-34.133-34.133h-303.787c-52.907 0-98.987-39.253-105.813-92.16 0-3.413 0-6.827 0-10.24h34.133c0 1.707 0 5.12 0 6.827 5.12 35.84 35.84 61.44 71.68 61.44h303.787c37.547 0 68.267 30.72 68.267 68.267h204.8c47.787 0 85.333-37.547 85.333-85.333h34.133c0 66.56-52.907 119.467-119.467 119.467h-204.8v221.867h341.333c18.773 0 34.133-15.36 34.133-34.133v-290.133c1.707-35.84-8.533-69.973-30.72-98.987l25.6-22.187c27.307 34.133 40.96 76.8 37.547 121.173z" />
<glyph unicode="&#xe903;" d="M427.307 89.6c-27.307 0-49.493 20.48-51.2 47.787 87.040 37.547 126.293 138.24 88.747 225.28s-138.24 126.293-225.28 88.747-126.293-138.24-88.747-225.28c17.067-39.253 49.493-71.68 88.747-88.747-1.707-27.307-23.893-47.787-51.2-47.787-47.787 0-85.333-37.547-85.333-85.333v-68.267h34.133v68.267c0 29.013 22.187 51.2 51.2 51.2 47.787 0 85.333 37.547 85.333 85.333v8.533c0 6.827-5.12 13.653-11.947 15.36-47.787 17.067-83.627 59.733-90.453 110.933h51.2c3.413 0 6.827 1.707 10.24 3.413l40.96 27.307 40.96-27.307c3.413-1.707 6.827-3.413 10.24-3.413h117.76c-6.827-51.2-40.96-93.867-90.453-110.933-6.827-1.707-11.947-8.533-11.947-15.36v-8.533c0-47.787 37.547-85.333 85.333-85.333 29.013 0 51.2-22.187 51.2-51.2v-68.267h34.133v68.267c1.707 47.787-35.84 85.333-83.627 85.333zM330.027 311.467l-46.080 30.72c-5.12 3.413-13.653 3.413-18.773 0l-47.787-30.72h-44.373c8.533 75.093 76.8 128 151.893 117.76 61.44-8.533 110.933-56.32 117.76-117.76h-112.64z" />
<glyph unicode="&#xe904;" d="M85.973 874.667h358.4v-34.133h-358.4v34.133z" />
<glyph unicode="&#xe905;" d="M85.973 806.4h102.4v-34.133h-102.4v34.133z" />
<glyph unicode="&#xe906;" d="M222.507 806.4h256v-34.133h-256v34.133z" />
<glyph unicode="&#xe907;" d="M85.973 738.133h34.133v-34.133h-34.133v34.133z" />
<glyph unicode="&#xe908;" d="M154.24 738.133h136.533v-34.133h-136.533v34.133z" />
<glyph unicode="&#xe909;" d="M324.907 738.133h153.6v-34.133h-153.6v34.133z" />
<glyph unicode="&#xe90a;" d="M717.44 755.2h238.933v-34.133h-238.933v34.133z" />
<glyph unicode="&#xe90b;" d="M649.173 686.933h119.467v-34.133h-119.467v34.133z" />
<glyph unicode="&#xe90c;" d="M802.773 686.933h153.6v-34.133h-153.6v34.133z" />
<glyph unicode="&#xe90d;" d="M649.173 755.2h34.133v-34.133h-34.133v34.133z" />
<glyph unicode="&#xe90e;" glyph-name="placeholder-filled-point" d="M511.984 960c-207.854 0-376.975-169.121-376.975-376.996 0-54.222 11.098-105.991 32.969-153.883 94.254-206.25 274.966-424.007 328.118-485.827 3.982-4.622 9.788-7.283 15.898-7.283s11.915 2.662 15.898 7.283c53.132 61.809 233.843 279.556 328.129 485.827 21.882 47.892 32.969 99.662 32.969 153.883-0.021 207.875-169.142 376.996-377.006 376.996zM511.984 387.192c-107.972 0-195.823 87.851-195.823 195.823 0 107.983 87.851 195.834 195.823 195.834s195.823-87.851 195.823-195.834c0.010-107.972-87.841-195.823-195.823-195.823z" />
<glyph unicode="&#xe910;" glyph-name="search" d="M991.284 27.298l-243.714 253.474c62.663 74.491 96.997 168.216 96.997 265.788 0 227.967-185.473 413.44-413.44 413.44s-413.44-185.473-413.44-413.44 185.473-413.44 413.44-413.44c85.582 0 167.137 25.813 236.865 74.815l245.565-255.398c10.264-10.66 24.069-16.538 38.863-16.538 14.003 0 27.287 5.339 37.371 15.046 21.427 20.618 22.11 54.808 1.492 76.253zM431.128 852.146c168.504 0 305.586-137.082 305.586-305.586s-137.082-305.586-305.586-305.586-305.586 137.082-305.586 305.586 137.082 305.586 305.586 305.586z" />
<glyph unicode="&#xe911;" d="M197.2 770.8l-36.4 16.4c-11.8 5.2-21.2 14.6-26.4 26.4l-16.4 36.4c-2.4 5.4-7.8 8.8-13.6 8.8-6 0-11.2-3.4-13.6-8.8l-16.4-36.4c-5.2-11.8-14.6-21.2-26.4-26.4l-36.8-16.4c-5.4-2.4-8.8-7.8-8.8-13.6s3.4-11.2 8.8-13.6l36.4-16.4c11.8-5.2 21.2-14.6 26.4-26.4l16.4-36.4c2.4-5.4 7.8-8.8 13.6-8.8 6 0 11.2 3.4 13.6 8.8l16.4 36.4c5.2 11.8 14.6 21.2 26.4 26.4l36.4 16.4c5.4 2.4 8.8 7.8 8.8 13.6 0.4 6-3 11.2-8.4 13.6zM148.4 754.6c-18.4-8.2-33.2-23-41.6-41.6l-2.6-6-2.6 6c-8.2 18.4-23 33.2-41.6 41.6l-6 2.6 6 2.6c18.4 8.2 33.2 23 41.6 41.6l2.6 6 2.6-6c8.2-18.4 23-33.2 41.6-41.6l6-2.6-6-2.6z" />
<glyph unicode="&#xe912;" d="M987.6 113.6l-36.4 16.4c-11.8 5.2-21.2 14.6-26.4 26.4l-16.4 36.4c-2.4 5.4-7.8 8.8-13.6 8.8s-11.2-3.4-13.6-8.8l-16.4-36.4c-5.2-11.8-14.6-21.2-26.4-26.4l-36.4-16.4c-5.4-2.4-8.8-7.8-8.8-13.6s3.4-11.2 8.8-13.6l36.4-16.4c11.8-5.2 21.2-14.6 26.4-26.4l16.4-36.4c2.4-5.4 7.8-8.8 13.6-8.8s11.2 3.4 13.6 8.8l16.4 36.4c5.2 11.8 14.6 21.2 26.4 26.4l36.4 16.4c5.4 2.4 8.8 7.8 8.8 13.6s-3.4 11.2-8.8 13.6zM938.8 97.2c-18.4-8.2-33.2-23-41.6-41.6l-2.6-6-2.6 6c-8.2 18.4-23 33.2-41.6 41.6l-6 2.6 6 2.6c18.4 8.2 33.2 23 41.6 41.6l2.6 6 2.6-6c8.2-18.4 23-33.2 41.6-41.6l6-2.6-6-2.6z" />
<glyph unicode="&#xe913;" d="M671.2 881.6l-32.4 14.4c-10 4.6-18.2 12.6-22.6 22.6l-14.6 32.4c-2.4 5.4-7.8 8.8-13.6 8.8s-11.2-3.4-13.6-8.8l-14.6-32.4c-4.6-10-12.6-18.2-22.6-22.6l-32.4-14.6c-5.4-2.4-8.8-7.8-8.8-13.6 0-6 3.4-11.2 8.8-13.6l32.4-14.6c10-4.6 18.2-12.6 22.6-22.6l14.6-32.4c2.4-5.4 7.8-8.8 13.6-8.8s11.2 3.4 13.6 8.8l14.6 32.4c4.6 10 12.6 18.2 22.6 22.6l32.4 14.6c5.4 2.4 8.8 7.8 8.8 13.6 0 6-3.4 11.4-8.8 13.8zM626.4 867c-16.8-7.6-30.2-21-37.8-37.8l-0.8-1.8-0.8 1.8c-7.6 16.8-21 30.2-37.8 37.8l-1.8 0.8 1.8 0.8c16.8 7.6 30.2 21 37.8 37.8l0.8 1.8 0.8-1.8c7.6-16.8 21-30.2 37.8-37.8l1.8-0.8-1.8-0.8z" />
<glyph unicode="&#xe914;" d="M1003.4 862.2l-75.4 75.4c-25.2 25.2-66.2 25.2-91.4 0-5.8-5.8-5.8-15.4 0-21.2s15.4-5.8 21.2 0c13.6 13.6 35.6 13.6 49 0l75.4-75.4c13.6-13.6 13.6-35.6 0-49l-54.6-54.6-124.4 124.4 10.8 10.8c5.8 5.8 5.8 15.4 0 21.2s-15.4 5.8-21.2 0l-204.6-204.6c-9.6 3.8-19.2 7.2-29.2 10l-11.4 79.8c-1 7.4-7.4 12.8-14.8 12.8h-109.6c-7.4 0-13.8-5.4-14.8-12.8l-11.4-79.8c-22.6-6.4-44.4-15.4-64.8-26.8l-64.4 48.4c-6 4.4-14.4 3.8-19.6-1.4l-77.6-77.6c-5.2-5.2-5.8-13.6-1.4-19.6l48.4-64.4c-11.6-20.4-20.6-42.2-26.8-64.8l-79.8-11.4c-7.4-1-12.8-7.4-12.8-14.8v-109.6c0-7.4 5.4-13.8 12.8-14.8l79.8-11.4c2.8-9.8 6-19.6 10-29.2l-114.8-114.8c-2-2-3.4-4.4-4-7l-42-118.6-37.4-105.4c-2-5.4-0.6-11.6 3.6-15.6 2.8-2.8 6.6-4.4 10.6-4.4 1.6 0 3.4 0.2 5 0.8l223.6 79c2.6 0.6 5 2 7 4l114.6 114.6c9.8-4 19.8-7.4 29.8-10.2l11.4-79.8c1-7.4 7.4-12.8 14.8-12.8h109.6c7.4 0 13.8 5.4 14.8 12.8l11.4 79.8c22.6 6.4 44.4 15.4 64.8 26.8l64.4-48.4c6-4.4 14.4-3.8 19.6 1.4l77.6 77.6c5.2 5.2 5.8 13.6 1.4 19.6l-48.4 64.4c11.6 20.6 20.6 42.2 26.8 64.8l79.8 11.4c7.4 1 12.8 7.4 12.8 14.8v109.6c0 7.4-5.4 13.8-12.8 14.8l-79.8 11.4c-2.8 10.2-6.2 20-10.2 29.8l248.6 248.6c25.2 25.2 25.2 66.2 0 91.4zM41.4-24.4l18.8 53 34.2-34.2-53-18.8zM125.6 5.4l-54.4 54.6 31.4 88.6 111.8-111.8-88.8-31.4zM828 453.6v-83.6l-76.8-11c-6-0.8-11-5.4-12.4-11.2-6.4-26.6-17-51.8-31.2-75.2-3.2-5.2-2.8-11.8 0.8-16.8l46.6-62-59.2-59.2-62 46.6c-5 3.6-11.6 4-16.8 0.8-23.4-14.2-48.6-24.6-75.2-31.2-6-1.4-10.4-6.4-11.2-12.4l-11-76.8h-83.6l-11 76.8c-0.8 6-5.4 11-11.2 12.4-7.8 2-15.6 4.2-23.4 7l82 82c2 0 3.8-0.2 5.6-0.2 94.8 0 172 77.2 172 172 0 4.2-0.2 8.2-0.4 12.4 0 0 0 0 0 0 0 0.2 0 0.2 0 0.4-0.2 2.6-0.4 5-0.8 7.6 0 0 0 0 0 0-9.6 81.4-76.2 145.4-158.8 151.2-0.2 0-0.2 0-0.4 0 0 0 0 0 0 0-3.8 0.2-7.6 0.4-11.6 0.4-94.8 0-172-77.2-172-172 0-1.6 0-3.2 0-4.8l-23.2-23.2c-0.4-0.4-0.8-0.8-1-1.2-2.2-2.8-3.4-6.2-3.4-9.4 0-3.8 1.4-7.6 4.4-10.6 0.4-0.4 0.8-0.8 1.2-1 4.4-3.6 10.2-4.2 15.2-2.2 1.8 0.8 3.4 1.8 5 3.2l190.2 190.2c65-7.4 117-59.2 124.8-124.2l-47.2-46.6c-5.8-5.8-5.8-15.4 0-21.2 3-3 6.8-4.4 10.6-4.4s7.6 1.4 10.6 4.4l24.2 24.2c-11-56.8-55.8-101.6-112.6-112.6l45.8 45.8c5.8 5.8 5.8 15.4 0 21.2s-15.4 5.8-21.2 0c0 0 0 0 0 0l-287.6-287.6-124.4 124.4 144 144c1.4 1.4 2.6 3.2 3.2 5 0.8 1.8 1 3.8 1 5.6 0 3.8-1.4 7.6-4.4 10.6-1.4 1.4-3.2 2.6-5 3.2-4.6 1.8-9.8 1.4-13.8-1.4-0.8-0.6-1.6-1.2-2.4-2l-16.4-16.4c-2.6 7.6-4.8 15.2-6.8 22.8-1.4 6-6.4 10.4-12.4 11.2l-76.6 11.4v83.6l76.8 11c6 0.8 11 5.4 12.4 11.2 6.4 26.6 17 51.8 31.2 75.2 3.2 5.2 2.8 11.8-0.8 16.8l-46.6 62 59.2 59.2 62-46.6c5-3.6 11.6-4 16.8-0.8 23.4 14.2 48.6 24.6 75.2 31.2 6 1.4 10.4 6.4 11.2 12.4l11 76.8h83.6l11-76.8c0.8-6 5.4-11 11.2-12.4 15-3.6 29.6-8.6 43.6-14.8 0 0 0 0 0 0 2.8-1.2 5.4-2.4 8.2-3.8 0 0 0 0 0.2 0 2.6-1.2 5-2.4 7.6-3.8 0.6-0.4 1.4-0.8 2-1 2-1 3.8-2 5.6-3 2.6-1.6 5.4-3 8-4.6 1.4-0.8 2.8-1.4 4.2-1.8 4.4-1 9-0.2 12.6 2.6l62 46.6 59.2-59.2-46.6-62c-1.8-2.4-2.8-5.4-3-8.2-0.2-3 0.6-6 2.2-8.6s3-5.2 4.6-7.8c1-1.8 2-3.6 3-5.4 0.4-0.8 0.8-1.4 1.2-2.2 1.2-2.4 2.4-4.8 3.6-7.2 0-0.2 0.2-0.2 0.2-0.4 1.2-2.6 2.4-5.2 3.6-8 0 0 0 0 0 0 6.2-14.2 11.4-29 15-44.2 1.4-6 6.4-10.4 12.4-11.2l76.6-11.2zM450 551l-111.4-111.4c11.2 56 55.4 100.2 111.4 111.4zM741.6 551.6c-1 2-2.2 4-3.4 6.2l48.4 64.4c4.4 6 3.8 14.4-1.4 19.6l-77.6 77.6c-5.2 5.2-13.6 5.8-19.6 1.4l-64.4-48.4c-2.2 1.2-4.4 2.4-6.6 3.6l86 86 124.4-124.4-85.8-86zM848.8 658.6l-124.4 124.4 57.6 57.6 124.4-124.4-57.6-57.6z" />
<glyph unicode="&#xe915;" d="M906 237.4c-5.6 2.4-12 1-16.4-3.2l-164.2-164.2c-4.2-4.2-5.6-10.8-3.2-16.4s7.8-9.2 13.8-9.2h164.2c8.4 0 15 6.8 15 15v164.2c0.2 6-3.6 11.4-9.2 13.8zM772.4 74.2l113 113v-113h-113z" />
<glyph unicode="&#xe916;" d="M1014.8 478.2c-5.6 2.4-12 1-16.4-3.2l-45-45v306c0 8.4-6.8 15-15 15h-115.4l42 42c0 0 0 0 0 0l40.4 40.4c8.6 8.6 13.4 20.2 13.4 32.4s-4.8 23.8-13.4 32.4l-47 46.8c-8.6 8.6-20.2 13.4-32.4 13.4s-23.8-4.8-32.4-13.4l-193.8-193.8h-466.6v148.6c0 8.4-6.8 15-15 15-65.2 0-118.2-53-118.2-118.2v-638.4c0-1.2 0.2-2.2 0.4-3.2 2-27.6 14-53.4 34-72.8 21.4-20.8 49.6-32.4 79.4-32.4h459.2l-86.4-86.4c-4.2-4.2-5.6-10.8-3.2-16.4s7.8-9.2 13.8-9.2h511.8c8.2 0 15 6.8 15 15v511.6c0 6-3.6 11.6-9.2 13.8zM814.8 923.6c6.2 6.2 16.2 6.2 22.2 0l46.8-46.8c6.2-6.2 6.2-16.2 0-22.4l-29.8-29.8-69 69 29.8 30zM763.8 872.6l69-69-27.6-27.6-69 69 27.6 27.6zM994 295.4h-27.8c-8.4 0-15-6.8-15-15s6.8-15 15-15h27.8v-45.2h-27.8c-8.4 0-15-6.8-15-15s6.8-15 15-15h27.8v-45.2h-27.8c-8.4 0-15-6.8-15-15s6.8-15 15-15h27.8v-45.2h-27.8c-8.4 0-15-6.8-15-15 0-8.4 6.8-15 15-15h27.8v-71.6h-460.4l151.8 151.8c5.8 5.8 5.8 15.4 0 21.2-0.6 0.6-1.4 1.2-2.2 1.8-5.8 4-14 3.4-19.2-1.8l-61-61h-489.2c-45.6 0-82.2 35.6-83.8 81 0 2.8 0.4 5.6 0.6 8.4 0 0 0 0 0 0 0.2 1.4 0.4 2.6 0.6 4 0 0.2 0 0.2 0 0.4 0.2 1.2 0.4 2.4 0.8 3.6 0 0.4 0.2 0.6 0.2 1 0.2 1 0.4 2 0.8 3 0.2 0.6 0.2 1 0.4 1.6 0.2 0.8 0.4 1.6 0.6 2.2 0.2 0.8 0.6 1.6 0.8 2.2s0.4 1 0.6 1.6 0.8 2 1.2 3c0.2 0.2 0.2 0.6 0.4 0.8 0.6 1.2 1 2.4 1.6 3.6 0 0 0 0 0 0.2 11.8 24.4 34.4 42.4 61.6 48 0 0 0.2 0 0.2 0 1.2 0.2 2.6 0.4 3.8 0.6 0.2 0 0.4 0 0.6 0.2 1.2 0.2 2.2 0.4 3.4 0.4 0.4 0 0.6 0 1 0.2 1.2 0.2 2.2 0.2 3.4 0.2 0.4 0 0.8 0 1 0 1.4 0 3 0.2 4.4 0.2 8.4 0 15 6.8 15 15v109c0 8.4-6.8 15-15 15s-15-6.8-15-15v-94.8c-25.4-3.2-49-14.6-67.6-32.6-2-2-3.8-3.8-5.6-6v559.4c0.2 43.4 32 79.8 73.4 86.8v-453c0-8.2 6.8-15 15-15s15 6.8 15 15v0 290.6h436.4l-83-83c-5.8-5.8-5.8-15.4 0-21.2s15.4-5.8 21.2 0l108.8 108.8c0 0 0 0 0 0l98.4 98.4 69-69-8-8c0 0 0 0 0 0l-303.2-303.4-69 69 59.8 59.8c5.8 5.8 5.8 15.4 0 21.2s-15.4 5.8-21.2 0l-70.4-70.4c-0.4-0.4-0.8-0.8-1-1.2-0.2-0.2-0.2-0.2-0.4-0.4s-0.4-0.6-0.6-0.8c-0.2-0.2-0.2-0.4-0.4-0.6s-0.4-0.6-0.4-0.8c0-0.2-0.2-0.4-0.2-0.6-0.2-0.2-0.2-0.6-0.4-0.8 0-0.2 0-0.2-0.2-0.4l-29.2-83-20-56.6c-0.2-0.8-0.4-1.6-0.6-2.2h-50c-8.2 0-15-6.8-15-15s6.8-15 15-15h416.2c8.4 0 15 6.8 15 15s-6.8 15-15 15h-298.6l91.6 32.4c0 0 0.2 0 0.2 0 0.4 0.2 0.8 0.2 1 0.4 0.2 0 0.2 0.2 0.4 0.2 0.4 0.2 0.8 0.4 1 0.6 0.2 0 0.2 0.2 0.4 0.2 0.4 0.2 0.8 0.4 1 0.8 0 0 0.2 0.2 0.2 0.2 0.4 0.4 0.8 0.6 1.2 1l309.2 309.2h130.6v-320.8l-214.8-215c-5.8-5.8-5.8-15.4 0-21.2 0.4-0.4 0.8-0.8 1.2-1 2.8-2.2 6.2-3.4 9.4-3.4s6.8 1.2 9.4 3.4c0.4 0.4 0.8 0.6 1.2 1 0 0 0 0 0 0l264.6 264.2v-132.6zM445.4 428.6l-43-15.2-28.8 28.6 15.2 43 56.6-56.4z" />
<glyph unicode="&#xe917;" glyph-name="telegram" d="M18.087 466.278l235.95-88.064 91.327-293.707c5.844-18.811 28.846-25.764 44.114-13.281l131.523 107.22c13.786 11.233 33.423 11.793 47.831 1.335l237.22-172.227c16.333-11.872 39.472-2.922 43.568 16.814l173.776 835.895c4.471 21.559-16.712 39.543-37.239 31.604l-968.346-373.559c-23.897-9.216-23.689-43.049 0.276-52.029zM330.646 425.093l461.135 284.013c8.288 5.089 16.814-6.117 9.697-12.718l-380.57-353.758c-13.377-12.452-22.006-29.116-24.45-47.203l-12.964-96.072c-1.717-12.827-19.736-14.1-23.276-1.686l-49.859 175.189c-5.711 19.982 2.611 41.325 20.285 52.234z" />
<glyph unicode="&#xe918;" glyph-name="telephone" d="M778.514 282.604c-33.454 33.028-75.219 33.028-108.46 0-25.357-25.144-50.714-50.288-75.645-75.858-6.819-7.032-12.572-8.523-20.882-3.836-16.408 8.95-33.88 16.194-49.649 25.996-73.514 46.239-135.096 105.69-189.645 172.599-27.062 33.241-51.14 68.826-67.974 108.886-3.409 8.097-2.77 13.424 3.836 20.030 25.357 24.505 50.075 49.649 75.006 74.793 34.733 34.946 34.733 75.858-0.213 111.017-19.817 20.030-39.634 39.634-59.451 59.664-20.456 20.456-40.699 41.125-61.368 61.368-33.454 32.602-75.219 32.602-108.46-0.213-25.57-25.144-50.075-50.927-76.071-75.645-24.079-22.8-36.224-50.714-38.781-83.316-4.049-53.058 8.95-103.133 27.275-151.929 37.503-101.002 94.61-190.711 163.862-272.962 93.544-111.23 205.201-199.234 335.822-262.733 58.811-28.553 119.754-50.501 186.023-54.124 45.6-2.557 85.234 8.95 116.984 44.535 21.735 24.292 46.239 46.452 69.253 69.679 34.094 34.52 34.307 76.284 0.426 110.378-40.486 40.699-81.185 81.185-121.884 121.671zM737.814 452.432l78.628 13.424c-12.359 72.236-46.452 137.653-98.232 189.645-54.763 54.763-124.015 89.283-200.3 99.937l-11.080-79.054c59.024-8.31 112.722-34.946 155.126-77.35 40.060-40.060 66.269-90.774 75.858-146.602zM860.764 794.22c-90.774 90.774-205.627 148.094-332.412 165.78l-11.080-79.054c109.526-15.342 208.823-64.991 287.238-143.193 74.367-74.367 123.163-168.337 140.849-271.683l78.628 13.424c-20.669 119.754-77.137 228.427-163.223 314.726z" />
<glyph unicode="&#xe919;" glyph-name="twitter-logo-silhouette" d="M1024 765.477c-37.689-16.7-78.129-28.026-120.618-33.083 43.384 25.98 76.594 67.187 92.334 116.139-40.696-24.059-85.616-41.529-133.48-50.999-38.328 40.888-92.846 66.356-153.316 66.356-116.010 0-210.072-94.062-210.072-210.009 0-16.444 1.856-32.505 5.44-47.864-174.559 8.768-329.345 92.399-432.941 219.481-18.109-30.971-28.411-67.059-28.411-105.581 0-72.883 37.113-137.191 93.423-174.815-34.426 1.151-66.804 10.621-95.15 26.363v-2.624c0-101.741 72.435-186.652 168.48-205.978-17.597-4.735-36.153-7.359-55.35-7.359-13.565 0-26.683 1.344-39.544 3.904 26.746-83.505 104.301-144.228 196.188-145.893-71.859-56.31-162.466-89.776-260.879-89.776-16.956 0-33.658 1.024-50.102 2.88 92.975-59.702 203.354-94.511 321.988-94.511 386.423 0 597.648 320.069 597.648 597.648l-0.704 27.195c41.271 29.437 76.976 66.421 105.067 108.526z" />
<glyph unicode="&#xe91a;" d="M589.312 933.972c-5.062 4.112-11.726 5.684-18.090 4.266l-554.666-128c-9.762-2.244-16.65-10.976-16.556-20.992v-725.334c0.004-10.526 7.686-19.478 18.090-21.078l554.666-85.334c11.646-1.79 22.538 6.198 24.328 17.842 0.164 1.070 0.248 2.152 0.248 3.234v938.67c0.020 6.506-2.934 12.664-8.020 16.726z" />
<glyph unicode="&#xe91b;" d="M1002.668 42.58h-426.668c-11.782 0-21.334 9.552-21.334 21.334s9.552 21.334 21.334 21.334h405.334v725.332h-405.334c-11.782 0-21.334 9.552-21.334 21.334s9.552 21.332 21.334 21.332h426.666c11.782 0 21.334-9.552 21.334-21.334v-768c0-11.782-9.55-21.332-21.332-21.332z" />
<glyph unicode="&#xe91c;" d="M362.668 255.912c-9.506 0.010-17.856 6.31-20.48 15.446l-64.854 226.902-64.854-226.902c-4.684-11.322-17.66-16.704-28.984-12.020-5.444 2.252-9.768 6.576-12.020 12.020l-85.332 298.666c-3.572 11.228 2.636 23.224 13.864 26.796s23.224-2.636 26.796-13.864c0.126-0.396 0.24-0.796 0.344-1.198l64.852-226.858 64.854 226.9c4.684 11.322 17.66 16.704 28.984 12.020 5.444-2.252 9.768-6.576 12.020-12.020l64.81-226.902 64.854 226.858c3.070 11.228 14.662 17.842 25.89 14.772 0.16-0.044 0.318-0.090 0.478-0.136 11.32-3.244 17.87-15.046 14.634-26.368l-85.334-298.666c-2.628-9.152-11.002-15.454-20.522-15.446z" />
<glyph unicode="&#xe91d;" d="M917.334 682.58h-341.334c-11.782 0-21.334 9.552-21.334 21.334s9.552 21.334 21.334 21.334h341.334c11.782 0 21.334-9.552 21.334-21.334 0-11.784-9.552-21.334-21.334-21.334z" />
<glyph unicode="&#xe91e;" d="M917.334 554.58h-341.334c-11.782 0-21.334 9.552-21.334 21.334s9.552 21.334 21.334 21.334h341.334c11.782 0 21.334-9.552 21.334-21.334s-9.552-21.334-21.334-21.334z" />
<glyph unicode="&#xe91f;" d="M917.334 426.58h-341.334c-11.782 0-21.334 9.552-21.334 21.334s9.552 21.334 21.334 21.334h341.334c11.782 0 21.334-9.552 21.334-21.334 0-11.784-9.552-21.334-21.334-21.334z" />
<glyph unicode="&#xe920;" d="M917.334 298.58h-341.334c-11.782 0-21.334 9.552-21.334 21.334s9.552 21.334 21.334 21.334h341.334c11.782 0 21.334-9.552 21.334-21.334 0-11.784-9.552-21.334-21.334-21.334z" />
<glyph unicode="&#xe921;" d="M917.334 170.58h-341.334c-11.782 0-21.334 9.552-21.334 21.334s9.552 21.334 21.334 21.334h341.334c11.782 0 21.334-9.552 21.334-21.334 0-11.784-9.552-21.334-21.334-21.334z" />
<glyph unicode="&#xe922;" glyph-name="arrow-point-to-right" d="M782.857 397.307l-440.304-440.29c-28.009-28.022-73.42-28.022-101.415 0-27.997 27.997-27.997 73.406 0 101.401l389.601 389.589-389.589 389.576c-27.997 28.009-27.997 73.413 0 101.41 27.997 28.009 73.406 28.009 101.415 0l440.304-440.297c13.999-14.005 20.99-32.342 20.99-50.687 0-18.354-7.005-36.704-21.001-50.703z" />
<glyph unicode="&#xe923;" d="M733.8 4.2h-477.8c-9.4 0-17-7.6-17-17v-34.2c0-9.4 7.6-17 17-17s17 7.6 17 17v17h460.8c9.4 0 17 7.6 17 17s-7.6 17.2-17 17.2z" />
<glyph unicode="&#xe924;" d="M375.4 533.4c0-9.4 7.6-17 17-17h68.2c9.4 0 17 7.6 17 17v102.4c0 9.4-7.6 17-17 17h-68.2c-9.4 0-17-7.6-17-17v-102.4zM409.6 618.6h34.2v-68.2h-34.2v68.2z" />
<glyph unicode="&#xe925;" d="M221.8 755.2h-204.8c-9.4 0-17-7.6-17-17v-341.4c0-9.4 7.6-17 17-17s17 7.6 17 17v324.2h187.8c9.4 0 17 7.6 17 17s-7.6 17.2-17 17.2z" />
<glyph unicode="&#xe926;" d="M819.2 123.8c0-9.4 7.6-17 17-17h68.2c9.4 0 17 7.6 17 17v102.4c0 9.4-7.6 17-17 17h-68.2c-9.4 0-17-7.6-17-17v-102.4zM853.4 209h34.2v-68.2h-34.2v68.2z" />
<glyph unicode="&#xe927;" d="M85.4 345.6c-84.4 0-85.4-219.6-85.4-221.8 0-41.2 29.4-75.6 68.2-83.6v-87c0-9.4 7.6-17 17-17s17 7.6 17 17v87c38.8 8 68.2 42.4 68.2 83.6 0.2 2.2-0.8 221.8-85 221.8zM85.4 72.6c-28.2 0-51.2 23-51.2 51.2 0 85 22.8 187.8 51.2 187.8s51.2-102.8 51.2-187.8c0-28.2-23-51.2-51.2-51.2z" />
<glyph unicode="&#xe928;" d="M187.8 448h-68.4c-9.4 0-17-7.6-17-17v-34.2c0-9.4 7.6-17 17-17s17 7.6 17 17v17h34.2v-85.4c0-9.4 7.6-17 17-17s17 7.6 17 17v102.4c0.2 9.6-7.4 17.2-16.8 17.2z" />
<glyph unicode="&#xe929;" d="M836.2 516.2h68.2c9.4 0 17 7.6 17 17v102.4c0 9.4-7.6 17-17 17h-68.2c-9.4 0-17-7.6-17-17v-102.4c0-9.2 7.6-17 17-17zM853.4 618.6h34.2v-68.2h-34.2v68.2z" />
<glyph unicode="&#xe92a;" d="M187.8 652.8h-68.4c-9.4 0-17-7.6-17-17v-102.4c0-9.4 7.6-17 17-17h68.2c9.4 0 17 7.6 17 17v102.4c0.2 9.4-7.4 17-16.8 17zM170.6 550.4h-34v68.2h34.2l-0.2-68.2z" />
<glyph unicode="&#xe92b;" d="M546.2 533.4c0-9.4 7.6-17 17-17h68.2c9.4 0 17 7.6 17 17v102.4c0 9.4-7.6 17-17 17h-68.2c-9.4 0-17-7.6-17-17v-102.4zM580.2 618.6h34.2v-68.2h-34.2v68.2z" />
<glyph unicode="&#xe92c;" d="M1007 755.2h-204.8c-9.4 0-17-7.6-17-17s7.6-17 17-17h187.8v-685.8c-5.4 2-11 3.2-17 3.2-3 0-5.8-0.2-8.8-0.8-11.8 21.2-34.2 35-59.4 35s-47.8-13.6-59.4-35c-2.8 0.6-5.8 0.8-8.8 0.8-28.2 0-51.2-23-51.2-51.2s22.6-51.4 50.8-51.4h136.6c28.2 0 51.2 23 51.2 51.2v751c0 9.4-7.6 17-17 17zM972.8-29.8h-136.6c-9.4 0-17 7.6-17 17s7.6 17 17 17c3.2 0 6.4-1 9.2-2.8 4.6-3 10.6-3.6 15.6-1.4 5.2 2 9 6.6 10.2 12 3.6 15.6 17.2 26.4 33.2 26.4s29.6-10.8 33.2-26.4c1.2-5.4 5-9.8 10.2-12 5.2-2 11-1.6 15.6 1.4 11.2 7.2 26.4-1.6 26.4-14.2 0-9.4-7.6-17-17-17z" />
<glyph unicode="&#xe92d;" d="M563.2 721h68.2c9.4 0 17 7.6 17 17v102.6c0 9.4-7.6 17-17 17h-68.2c-9.4 0-17-7.6-17-17v-102.4c0-9.4 7.6-17.2 17-17.2zM580.2 823.4h34.2v-68.2h-34.2v68.2z" />
<glyph unicode="&#xe92e;" d="M546.2 328.6c0-9.4 7.6-17 17-17h68.2c9.4 0 17 7.6 17 17v102.4c0 9.4-7.6 17-17 17h-68.2c-9.4 0-17-7.6-17-17v-102.4zM580.2 413.8h34.2v-68.2h-34.2v68.2z" />
<glyph unicode="&#xe92f;" d="M392.6 721h68.2c9.4 0 17 7.6 17 17v102.6c0 9.4-7.6 17-17 17h-68.2c-9.4 0-17-7.6-17-17v-102.4c-0.2-9.4 7.6-17.2 17-17.2zM409.6 823.4h34.2v-68.2h-34.2v68.2z" />
<glyph unicode="&#xe930;" d="M499.8 135.8c-3-3.2-5-7.6-5-12.2s1.8-8.8 5-12.2c3.2-3 7.6-5 12.2-5 4.4 0 8.8 1.8 12.2 5 3 3.2 5 7.6 5 12.2s-1.8 8.8-5 12.2c-6.6 6.4-17.8 6.4-24.4 0z" />
<glyph unicode="&#xe931;" d="M375.4 328.6c0-9.4 7.6-17 17-17h68.2c9.4 0 17 7.6 17 17v102.4c0 9.4-7.6 17-17 17h-68.2c-9.4 0-17-7.6-17-17v-102.4zM409.6 413.8h34.2v-68.2h-34.2v68.2z" />
<glyph unicode="&#xe932;" d="M341.4 226.2c0-9.4 7.6-17 17-17h51.2v-153.6c0-9.4 7.6-17 17-17s17 7.6 17 17v153.6h136.6v-153.6c0-9.4 7.6-17 17-17s17 7.6 17 17v153.6h51.2c9.4 0 17 7.6 17 17s-7.6 17-17 17h-307c-9.4 0-17-7.6-17-17z" />
<glyph unicode="&#xe933;" d="M819.2 328.6c0-9.4 7.6-17 17-17h68.2c9.4 0 17 7.6 17 17v102.4c0 9.4-7.6 17-17 17h-68.2c-9.4 0-17-7.6-17-17v-102.4zM853.4 413.8h34.2v-68.2h-34.2v68.2z" />
<glyph unicode="&#xe934;" d="M733.8 960h-443.6c-9.4 0-17-7.6-17-17v-887.4c0-9.4 7.6-17 17-17s17 7.6 17 17v870.2h409.6v-870.4c0-9.4 7.6-17 17-17s17 7.6 17 17v887.6c0.2 9.4-7.6 17-17 17z" />
<glyph unicode="&#xe935;" d="M721.2 709.6c-7 0-13.6-1.6-19.4-4.2l-79.2 79.2c2.8 6 4.2 12.6 4.2 19.4 0 26-21.2 47.2-47.2 47.2s-47.2-21.2-47.2-47.2c0-9 2.6-17.4 6.8-24.4l-9.4-9.4c-41 90-132 152.8-237.2 152.8-143.6 0-260.6-116.8-260.6-260.6 0-5.8 0.2-11.6 0.6-17.4-18.8-6-32.6-23.8-32.6-44.8 0-26 21.2-47.2 47.2-47.2 3 0 5.8 0.2 8.6 0.8 13.4-29 31.6-55 54.6-77.6 3-2.8 6.8-4.2 10.4-4.2 3.8 0 7.8 1.6 10.8 4.6 5.8 6 5.6 15.4-0.2 21.2-20.8 20.4-37.4 44.2-49.4 70.8 7.6 8.4 12.2 19.4 12.2 31.6 0 7.6-1.8 14.6-5 21l91.6 91.6c6.4-3.2 13.4-5 21-5 7 0 13.8 1.6 19.8 4.4l100.8-100.8c0.2-0.2 0.6-0.6 0.8-0.8-2.8-6-4.4-12.8-4.4-20 0-26 21.2-47.2 47.2-47.2s47.2 21.2 47.2 47.2c0 6-1.2 11.8-3.2 17.2l107 107c4-17 6-34.6 6-52.6 0-127.2-103.4-230.6-230.6-230.6-40.4 0-80.2 10.6-115 30.6-7.2 4.2-16.4 1.6-20.4-5.6-4.2-7.2-1.6-16.4 5.6-20.4 39.4-22.6 84.4-34.6 130-34.6 143.6 0 260.6 116.8 260.6 260.6 0 26.8-4 52.6-11.6 77l20.6 20.6c5.4-2.2 11.2-3.2 17.2-3.2 8.2 0 15.8 2 22.4 5.8l77.8-77.8c-3.6-6.6-5.8-14.4-5.8-22.4 0-26 21.2-47.2 47.2-47.2s47.2 21.2 47.2 47.2-21 47.4-47 47.4zM47.2 583c-9.4 0-17.2 7.6-17.2 17.2s7.6 17.2 17.2 17.2 17.2-7.6 17.2-17.2-7.8-17.2-17.2-17.2zM202 737.8c-9.4 0-17.2 7.6-17.2 17.2 0 9.4 7.6 17.2 17.2 17.2s17.2-7.6 17.2-17.2-7.8-17.2-17.2-17.2zM366.2 573.6c-9.4 0-17.2 7.6-17.2 17.2 0 9.4 7.6 17.2 17.2 17.2s17.2-7.6 17.2-17.2c0-9.4-7.8-17.2-17.2-17.2zM390.8 631c-7.2 4.4-15.6 6.8-24.4 6.8-8 0-15.6-2-22.2-5.6 0 0-0.2 0.2-0.2 0.2l-100.2 100.2c3.6 6.6 5.6 14.2 5.6 22 0 26-21.2 47.2-47.2 47.2s-47.2-21.2-47.2-47.2c0-7.6 1.8-14.6 5-21l-92-91.2c-1.6 0.8-3.4 1.6-5.2 2.2-0.4 6-0.6 11.8-0.6 17.8 0 127.2 103.4 230.6 230.6 230.6 97.2 0 180.4-60.4 214.4-145.6l-116.4-116.4zM579.6 787c-9.4 0-17.2 7.6-17.2 17.2s7.6 17.2 17.2 17.2 17.2-7.6 17.2-17.2-7.8-17.2-17.2-17.2zM721.2 645.4c-9.4 0-17.2 7.6-17.2 17.2 0 9.4 7.6 17.2 17.2 17.2 9.4 0 17.2-7.6 17.2-17.2-0.2-9.6-7.8-17.2-17.2-17.2z" />
<glyph unicode="&#xe936;" d="M1009 3h-6.6v328.4c0 8.2-6.8 15-15 15s-15-6.8-15-15v-328.4h-58v644.4h58v-254.8c0-8.2 6.8-15 15-15s15 6.8 15 15v269.8c0 8.2-6.8 15-15 15h-88c-8.2 0-15-6.8-15-15v-659.4h-30.2v527.4c0 8.2-6.8 15-15 15h-88c-8.2 0-15-6.8-15-15v-527.4h-30.2v414.6c0 8.2-6.8 15-15 15h-88c-8.2 0-15-6.8-15-15v-414.6h-30v305.4c0 8.2-6.8 15-15 15h-88c-8.2 0-15-6.8-15-15v-305.4h-30v232.4c0 8.2-6.8 15-15 15h-88c-8.2 0-15-6.8-15-15v-86.8c0-8.2 6.8-15 15-15s15 6.8 15 15v71.8h58v-217.4h-58v84.4c0 8.2-6.8 15-15 15s-15-6.8-15-15v-84.4h-30.2v232.4c0 8.2-6.8 15-15 15h-88c-8.2 0-15-6.8-15-15v-232.4h-114.8c-8.2 0-15-6.8-15-15s6.8-15 15-15h980c8.2 0 15 6.8 15 15s-6.8 15-15 15zM231.8 3h-57.8v217.4h58v-217.4zM528 3h-58v290.4h58v-290.4zM676.2 3h-58v399.6h58v-399.6zM824.2 3h-58v512.4h58v-512.4z" />
<glyph unicode="&#xe937;" d="M987.4 898.4c-8.2 0-15-6.8-15-15v-3.2c0-8.2 6.8-15 15-15s15 6.8 15 15v3.2c0 8.4-6.8 15-15 15z" />
<glyph unicode="&#xe938;" d="M936.4 898.4c-8.2 0-15-6.8-15-15v-3.2c0-8.2 6.8-15 15-15s15 6.8 15 15v3.2c0 8.4-6.8 15-15 15z" />
<glyph unicode="&#xe939;" d="M987 835.4h-50.8c-8.2 0-15-6.8-15-15s6.8-15 15-15h50.8c8.2 0 15 6.8 15 15s-6.6 15-15 15z" />
<glyph unicode="&#xe93a;" d="M987 787h-135.2c-8.2 0-15-6.8-15-15s6.8-15 15-15h135.2c8.2 0 15 6.8 15 15s-6.6 15-15 15z" />
<glyph unicode="&#xe93b;" glyph-name="envelope-shape" d="M932.564 45.713c23.018 0 42.963 7.6 59.918 22.607l-290.116 290.127c-6.961-4.984-13.707-9.831-20.080-14.44-21.711-15.996-39.332-28.478-52.863-37.422-13.529-8.965-31.529-18.102-53.998-27.431-22.484-9.34-43.431-13.996-62.863-13.996h-1.138c-19.433 0-40.38 4.653-62.863 13.996-22.482 9.329-40.483 18.467-53.998 27.431-13.529 8.944-31.14 21.425-52.863 37.422-6.053 4.438-12.767 9.307-20.025 14.518l-290.171-290.205c16.953-15.007 36.911-22.607 59.927-22.607h841.132zM57.72 541.14c-21.709 14.473-40.96 31.049-57.72 49.721v-441.404l255.707 255.707c-51.156 35.714-117.068 80.987-197.986 135.977zM966.858 541.14c-77.833-52.68-143.984-98.032-198.462-136.079l255.604-255.616v441.415c-16.388-18.296-35.433-34.861-57.142-49.721zM932.564 850.287h-841.13c-29.345 0-51.905-9.909-67.71-29.707-15.817-19.807-23.713-44.578-23.713-74.285 0-23.996 10.478-49.996 31.425-78.007 20.947-28 43.236-49.994 66.856-65.992 12.949-9.149 51.998-36.296 117.148-81.432 35.169-24.371 65.754-45.614 92.036-63.945 22.403-15.609 41.723-29.127 57.674-40.345 1.831-1.285 4.711-3.345 8.533-6.077 4.118-2.958 9.329-6.711 15.758-11.354 12.38-8.954 22.665-16.191 30.856-21.72 8.18-5.531 18.091-11.709 29.718-18.569 11.618-6.851 22.575-12.003 32.86-15.429 10.287-3.425 19.809-5.142 28.569-5.142h1.138c8.758 0 18.283 1.718 28.571 5.142 10.283 3.426 21.231 8.567 32.858 15.429 11.616 6.86 21.514 13.051 29.72 18.569 8.191 5.529 18.476 12.765 30.858 21.72 6.416 4.642 11.627 8.398 15.745 11.344 3.824 2.744 6.702 4.791 8.545 6.087 12.426 8.647 31.791 22.109 57.826 40.187 47.374 32.916 117.144 81.363 209.602 145.535 27.807 19.422 51.039 42.86 69.71 70.281 18.638 27.42 27.982 56.183 27.982 86.279 0 25.145-9.060 46.66-27.14 64.581-18.1 17.898-39.534 26.851-64.296 26.851z" />
<glyph unicode="&#xe93c;" d="M992 95.978h-448c-17.664 0-32 14.336-32 32s0 622.336 0 640 14.336 32 32 32h448c17.664 0 32-14.336 32-32v-640c0-17.664-14.336-32-32-32z" />
<glyph unicode="&#xe93d;" d="M672 607.978h-128c-17.664 0-32 14.336-32 32s14.336 32 32 32h128c17.664 0 32-14.336 32-32s-14.336-32-32-32z" />
<glyph unicode="&#xe93e;" d="M672 479.978h-128c-17.664 0-32 14.336-32 32s14.336 32 32 32h128c17.664 0 32-14.336 32-32s-14.336-32-32-32z" />
<glyph unicode="&#xe93f;" d="M672 351.978h-128c-17.664 0-32 14.336-32 32s14.336 32 32 32h128c17.664 0 32-14.336 32-32s-14.336-32-32-32z" />
<glyph unicode="&#xe940;" d="M672 223.978h-128c-17.664 0-32 14.336-32 32s14.336 32 32 32h128c17.664 0 32-14.336 32-32s-14.336-32-32-32z" />
<glyph unicode="&#xe941;" d="M864 607.978h-64c-17.664 0-32 14.336-32 32s14.336 32 32 32h64c17.664 0 32-14.336 32-32s-14.336-32-32-32z" />
<glyph unicode="&#xe942;" d="M864 479.978h-64c-17.664 0-32 14.336-32 32s14.336 32 32 32h64c17.664 0 32-14.336 32-32s-14.336-32-32-32z" />
<glyph unicode="&#xe943;" d="M864 351.978h-64c-17.664 0-32 14.336-32 32s14.336 32 32 32h64c17.664 0 32-14.336 32-32s-14.336-32-32-32z" />
<glyph unicode="&#xe944;" d="M864 223.978h-64c-17.664 0-32 14.336-32 32s14.336 32 32 32h64c17.664 0 32-14.336 32-32s-14.336-32-32-32z" />
<glyph unicode="&#xe945;" d="M564.416 920.618c-7.296 6.080-17.088 8.704-26.304 6.784l-512-96c-15.168-2.816-26.112-16-26.112-31.424v-704c0-15.36 10.944-28.608 26.112-31.424l512-96c1.92-0.384 3.904-0.576 5.888-0.576 7.424 0 14.656 2.56 20.416 7.36 7.36 6.080 11.584 15.168 11.584 24.64v896c0 9.536-4.224 18.56-11.584 24.64z" />
<glyph unicode="&#xe946;" d="M440.064 341.034l-101.184 115.648 102.336 131.584c10.88 13.952 8.32 34.048-5.568 44.928s-33.984 8.32-44.928-5.568l-94.784-121.856-79.872 91.264c-11.712 13.44-31.936 14.656-45.12 3.008-13.312-11.648-14.656-31.872-3.008-45.12l88-100.608-89.216-114.688c-10.88-13.952-8.32-34.048 5.568-44.928 5.888-4.544 12.864-6.72 19.712-6.72 9.536 0 18.944 4.224 25.28 12.352l81.6 104.96 93.056-106.304c6.336-7.296 15.168-11.008 24.064-11.008 7.488 0 14.976 2.624 21.056 7.936 13.312 11.648 14.656 31.872 3.008 45.12z" />
<glyph unicode="&#xe947;" glyph-name="facebook-logo" d="M767.965 959.787l-132.79 0.213c-149.185 0-245.595-98.913-245.595-252.008v-116.192h-133.514c-11.537 0-20.88-9.353-20.88-20.891v-168.35c0-11.537 9.353-20.88 20.88-20.88h133.514v-424.8c0-11.537 9.343-20.88 20.88-20.88h174.198c11.537 0 20.88 9.353 20.88 20.88v424.8h156.109c11.537 0 20.88 9.343 20.88 20.88l0.064 168.35c0 5.54-2.205 10.845-6.115 14.765s-9.236 6.125-14.776 6.125h-156.163v98.498c0 47.342 11.282 71.375 72.952 71.375l89.453 0.032c11.527 0 20.869 9.353 20.869 20.88v156.322c0 11.516-9.332 20.859-20.848 20.88z" />
<glyph unicode="&#xe948;" d="M941 546.8c-34 6.4-67.4-14.8-75.6-48.6l-36.4-135.2c-25 15.8-57.2 13-79.2-6.6l-139.6-87.8c-51.4-32-82.4-88.4-82.2-149v-135.6c0-8.8 7.2-16 16-16s16 7.2 16 16v135.6c-0.2 49.6 25.4 95.6 67.4 121.8 0 0 143 90 143.8 91 12.6 12 32.6 12 45.2 0 12.2-12.2 12.6-31.8 0.8-44.4l-106.4-74.8c-7.2-5-9-15-3.8-22.2s15-9 22.2-3.8c0 0 109.2 76.8 109.8 77.4 17.6 17.4 23.4 43.8 14.8 67l42.6 158.4c4 17.2 20.6 28.2 38 25.6 14.8-3.2 25.2-16.2 25.4-31.2 0-2.8-0.4-5.6-1-8.4l-55.4-207c-3.6-13.6-10.8-26-20.8-35.8l-113.6-113.6c-21.2-21-33-49.6-33-79.4v-56.2c0-8.8 7.2-16 16-16s16 7.2 16 16v56.2c0 21.2 8.4 41.6 23.4 56.6l113.6 113.6c13.8 14 23.8 31.2 29 50.2l55.4 207c9.2 34.2-11.2 69.2-45.2 78.4-1 0.4-2.2 0.6-3.2 0.8v0z" />
<glyph unicode="&#xe949;" d="M413.8 268.6l-139.6 87.8c-21.6 20.4-54.4 23.2-79.2 6.8l-36.2 135.2c-8.2 33.8-41.6 55-75.6 48.6-34.6-7.4-56.8-41.4-49.4-76 0.2-1 0.4-2 0.8-3.2l55.4-207c5-19 15-36.4 29-50.2l113.6-113.6c15-15 23.4-35.4 23.4-56.6v-56.4c0-8.8 7.2-16 16-16s16 7.2 16 16v56.2c0 29.8-11.8 58.2-32.8 79.2l-113.6 113.6c-10 10-17 22.4-20.8 35.8l-55.4 207.2c-4.4 17.2 5.8 34.8 23 39.2 0.4 0.2 1 0.2 1.4 0.4 17.4 2.8 34-8.4 38-25.6l42.6-158.4c-8.4-23.2-2.8-49.4 14.8-67 0.6-0.6 109.8-77.4 109.8-77.4 7.2-5 17.2-3.4 22.2 3.8s3.4 17.2-3.8 22.2v0l-106.4 74.8c-12 13-11.4 33.2 1.6 45.2 12.6 11.8 32.4 11.4 44.4-0.8 0.8-0.8 143.8-91 143.8-91 42-26.2 67.4-72.4 67.4-122v-135.4c0-8.8 7.2-16 16-16s16 7.2 16 16v135.6c0 60.6-31.2 117-82.4 149z" />
<glyph unicode="&#xe94a;" d="M528 368h48c79.4 0 144 64.6 144 144v64c0 8.8-7.2 16-16 16h-64c-43.6 0-84.8-19.8-112-53.6v70.6c88 8.8 152 87.2 143.2 175.2s-87.2 151.8-175.2 143-152-87.2-143.2-175.2c7.6-75.8 67.4-135.6 143.2-143.2v-118.6c-27.2 34-68.4 53.6-112 53.6h-64c-8.8 0-16-7.2-16-16v-64c0-79.4 64.6-144 144-144h48v-80c0-8.8 7.2-16 16-16s16 7.2 16 16v128.2zM640 560h48v-48c0-61.8-50.2-112-112-112h-48v48c0 61.8 50.2 112 112 112zM384 768c0 70.6 57.4 128 128 128s128-57.4 128-128-57.4-128-128-128c-70.6 0-128 57.4-128 128zM448 352c-61.8 0-112 50.2-112 112v48h48c61.8 0 112-50.2 112-112v-48h-48z" />
<glyph unicode="&#xe94b;" d="M528 672v19c25 8.8 38 36.2 29.2 61-6.8 19.2-25 32-45.2 32-8.8 0-16 7.2-16 16s7.2 16 16 16 16-7.2 16-16 7.2-16 16-16 16 7.2 16 16c0 20.2-12.8 38.2-32 45v19c0 8.8-7.2 16-16 16s-16-7.2-16-16v-19c-25-8.8-38-36.2-29.2-61 6.8-19.2 25-32 45.2-32 8.8 0 16-7.2 16-16s-7.2-16-16-16-16 7.2-16 16-7.2 16-16 16-16-7.2-16-16c0-20.2 12.8-38.2 32-45v-19c0-8.8 7.2-16 16-16s16 7.2 16 16z" />
<glyph unicode="&#xe94c;" glyph-name="icon-1" d="M761.486 538.418c0 0 41.412 31.49 9.889 62.979s-62.169-9.146-62.169-9.146l-316.886-316.954c0 0-74.218-95.785-130.649-37.868-56.364 57.984 37.835 130.683 37.835 130.683l415.506 415.473c0 0 96.966 106.821 188.127 15.728 91.026-91.127-16.099-188.296-16.099-188.296l-466.875-466.875c0 0-149.381-172.568-287.658-34.257s35.978 286.004 35.978 286.004l354.451 354.552c0 0 39.691 33.143 9.956 62.979-29.869 29.802-62.945-9.956-62.945-9.956l-406.731-406.731c0 0-153.532-168.383 17.922-339.803 171.454-171.522 339.938-17.989 339.938-17.989l559.015 559.082c0 0 111.85 123.359-21.499 256.776s-256.743 21.567-256.743 21.567l-481.017-480.949c0 0-123.191-100.206-11.408-211.921 111.783-111.85 210.166 13.163 210.166 13.163l341.896 341.761z" />
<glyph unicode="&#xe94d;" glyph-name="icon" d="M869.741 307.404v-233.917h-715.516v233.917h-137.522v-302.677c0-37.95 30.743-68.727 68.863-68.727h852.832c38.087 0 68.863 30.743 68.863 68.727v302.677h-137.522zM499.396 330.598l-196.889 237.913c0 0-29.957 28.283 2.528 28.283s110.946 0 110.946 0 0 19.026 0 48.368c0 83.654 0 235.898 0 297.964 0 0-4.406 16.874 21.007 16.874 25.619 0 137.829 0 156.172 0 18.309 0 17.899-14.21 17.899-14.21 0-60.187 0-217.691 0-298.613 0-26.234 0-43.245 0-43.245s62.92 0 102.407 0c39.419 0 9.735-29.615 9.735-29.615s-167.513-222.371-190.877-245.701c-16.806-16.908-32.929 1.981-32.929 1.981z" />
</font>
</defs>
</svg>
